<?xml version="1.0" encoding="utf-8"?>
<!-- Designed by Vexels.com - 2020 All Rights Reserved - https://vexels.com/terms-and-conditions/  -->
<svg version="1.1" id="Layer_1" xmlns="http://www.w3.org/2000/svg" xmlns:xlink="http://www.w3.org/1999/xlink" x="0px" y="0px"
	 viewBox="0 0 1200 1200" enable-background="new 0 0 1200 1200" xml:space="preserve">
<g>
	<g>
		<g>
			<path fill="#F3A771" d="M716.892,538.413c1.187,0.65,2.32,1.514,3.384,2.628c3.526,3.689,5.225,8.719,6.63,13.625
				c2.711,9.466-3.493,7.864-9.771,8.503c-8.103,0.825-16.547,3.93-24.519,5.719c-9.589,2.153-19.258,4.582-29.003,5.945
				c-19.95,2.79-39.913-8.879-9.735-16.572c10.258-2.615,20.103-7.171,29.763-11.408
				C692.782,542.844,706.801,532.889,716.892,538.413z"/>
		</g>
	</g>
	<g>
		<g>
			<path fill="#1C2C3D" d="M705.444,548.792c-8.984,1.857-19.357,5.927-27.97,9.387c-9.173,3.685-18.385,7.353-27.622,10.923
				c-1.072,0.415-2.329,1.078-2.355,2.227c-0.03,1.334,1.58,2.001,2.89,2.254c21.059,4.078,44.083-4.684,57.102-21.731
				c0.556-0.728,1.114-1.708,0.651-2.499C707.643,548.504,706.408,548.592,705.444,548.792z"/>
		</g>
	</g>
	<g>
		<g>
			<path fill="#ADC7E3" d="M709.571,536.912c-2.005,1.493-4.848,0.07-7.328,0.385c-1.673,0.212-3.12,1.219-4.654,1.919
				c-1.534,0.7-3.461,1.061-4.819,0.061c1.579,0.439,2.705,0.738,4.26,0.016c7.466-3.467,16.272-3.833,22.951,1.844
				c5.331,4.616,12.35,14.429,12.35,21.871c0.245,1.017,0.658,2.24,1.688,2.425c0.555,0.1,1.106-0.158,1.611-0.409
				c13.54-6.726,28.11-10.982,41.87-17.302c6.871-3.156,21.477-8.189,24.754-15.969c8.442-16.18,26.028-158.982,25.325-164.609
				c-0.703-5.628-14.773-85.118-14.773-85.118c-14.523,6.971-39.093,15.582-41.681,32.934c-4.684,31.415-6.161,63.209-7.631,94.938
				c-0.638,13.764-0.511,27.818-1.926,41.521c-1.271,12.307-2.474,23.324,0.793,35.723c0.406,1.541,0.85,3.221,0.211,4.68
				c-1.043,2.38-4.272,2.774-6.831,2.321c-2.559-0.452-5.267-1.377-7.662-0.369c-6.213,2.614-2.998,14.025-8.943,17.201
				c-4.064,2.171-9.146-1.415-13.582-0.17c-1.41,0.396-2.641,1.257-3.998,1.809c-3.032,1.235-6.446,0.857-9.701,1.207
				c-10.463,1.127-21.22,12.296-19.152,23.384c0.195,1.044,0.916,2.053,1.866,2.43"/>
		</g>
	</g>
	<g>
		<g>
			<path fill="none" d="M773.657,445.417c2.621,0.952,4.19,3.003,5.709,4.986c1.34,1.748,2.603,3.398,4.506,4.213
				c1.929,0.823,4.335,0.688,6.661,0.561l0.42-0.023c0.577-0.031,1.155-0.034,1.733-0.055c2.838-14.089,5.16-28.213,6.978-42.362
				c-5.242-1.36-10.973-1.819-16.048-1.856c-4.717-0.036-9.439,0.127-14.156,0.445c-1.135,11.386-2.396,22.76-3.863,34.106
				C768.527,444.869,771.181,444.518,773.657,445.417z"/>
		</g>
		<g>
			<path fill="none" d="M745.126,514.722c-0.316,0.206-0.627,0.387-0.936,0.551c0.763,1.021,1.519,2.085,2.264,3.247
				c1.57,2.448,2.453,5.222,3.308,7.905c1.064,3.345,2.071,6.505,4.289,8.96c0.781,0.865,1.718,1.61,2.71,2.398
				c0.725,0.575,1.449,1.154,2.118,1.781c1.409-0.92,2.682-1.907,3.746-2.841c9.961-8.757,14.684-20.953,16.611-27.443
				c0.831-2.799,1.597-5.605,2.387-8.409c-4.444-0.428-9.018,0.347-13.711,1.266c-2.917,0.568-5.933,1.159-8.827,0.393
				c-1.603-0.426-2.993-1.236-4.235-1.992c-0.291,0.748-0.563,1.5-0.877,2.241C752.296,506.748,749.774,511.693,745.126,514.722z"/>
		</g>
		<g>
			<path fill="none" d="M783.63,408.779c6.215,0.046,11.665,0.679,16.307,1.863c1.758-14.075,3.002-28.171,3.747-42.279
				c-0.474,0.028-0.949,0.058-1.419,0.091c-9.881,0.692-19.756,1.883-29.555,3.543c-0.816,12.406-1.822,24.81-3.035,37.201
				C774.326,408.894,778.982,408.739,783.63,408.779z"/>
		</g>
		<g>
			<path fill="none" d="M802.116,366.358c0.558-0.039,1.12-0.076,1.684-0.109c0.717-14.553,0.891-29.115,0.528-43.674
				c-0.285,0.048-0.547,0.074-0.835,0.125c-9.918,1.778-19.592,4.634-28.809,8.446c-0.394,12.884-1.01,25.784-1.835,38.69
				C782.554,368.209,792.332,367.043,802.116,366.358z"/>
		</g>
		<g>
			<path fill="#FFFFFF" d="M745.126,514.722c4.648-3.029,7.17-7.974,8.848-11.942c0.314-0.741,0.586-1.494,0.877-2.241
				c-0.099-0.06-0.204-0.122-0.301-0.181l-1.521-0.928c-0.324,0.846-0.635,1.695-0.99,2.532c-1.562,3.692-3.89,8.282-8.061,11.001
				c-0.376,0.245-0.743,0.44-1.107,0.616c0.444,0.539,0.883,1.111,1.319,1.695C744.499,515.109,744.81,514.928,745.126,514.722z"/>
		</g>
		<g>
			<path fill="#FFFFFF" d="M765.595,445.432c1.467-11.345,2.728-22.72,3.863-34.106c-0.709,0.048-1.419,0.089-2.127,0.144
				c-1.147,11.479-2.418,22.947-3.904,34.385l1.724-0.339C765.301,445.487,765.447,445.46,765.595,445.432z"/>
		</g>
		<g>
			<path fill="#FFFFFF" d="M775.18,305.392c-0.81,1.117-1.533,2.276-2.133,3.489c-0.078,6.941-0.221,13.889-0.426,20.845
				c0.706-0.3,1.416-0.588,2.126-0.877C774.973,321.019,775.116,313.201,775.18,305.392z"/>
		</g>
		<g>
			<path fill="#FFFFFF" d="M772.71,371.997c-0.711,0.12-1.42,0.256-2.13,0.381c-0.817,12.328-1.823,24.652-3.031,36.964
				c0.709-0.054,1.418-0.098,2.127-0.144C770.887,396.807,771.894,384.404,772.71,371.997z"/>
		</g>
		<g>
			<path fill="#FFFFFF" d="M760.431,467.358c-0.046,0.306-0.094,0.608-0.139,0.914c-0.066,3.394,0.049,6.79,0.454,10.245
				c0.648-3.583,1.221-7.2,1.764-10.851c0.993-6.667,1.916-13.348,2.793-20.036l-2.182,0.429
				C762.272,454.501,761.387,460.937,760.431,467.358z"/>
		</g>
		<g>
			<path fill="#FFFFFF" d="M774.685,331.147c-0.711,0.294-1.422,0.587-2.127,0.892c-0.4,12.714-1.019,25.444-1.839,38.179
				c0.711-0.124,1.419-0.262,2.131-0.381C773.675,356.931,774.291,344.032,774.685,331.147z"/>
		</g>
		<g>
			<path fill="#FFFFFF" d="M737.464,514.707c-0.656,0.049-1.334,0.101-2.047,0.179c-0.808,0.089-1.697,0.344-2.556,0.589
				c-1.228,0.35-2.497,0.716-3.369,0.561c-0.623-0.108-1.212-0.477-1.834-0.867c-0.747-0.469-1.594-1-2.651-1.167
				c-4.382-0.713-5.963,3.21-7.008,5.792c-0.308,0.762-0.601,1.484-0.908,2.007c-0.186,0.315-0.705,1.199-1.001,1.528
				c-0.179-0.108-0.454-0.314-0.686-0.487c-0.403-0.298-0.895-0.665-1.526-1.066c-3.856-2.456-9.568-3.502-14.597-1.819
				c-0.303,0.297-0.589,0.611-0.875,0.925c0.312,0.425,0.626,0.853,0.941,1.285c4.523-1.785,9.851-0.879,13.402,1.38
				c0.578,0.369,1.03,0.707,1.401,0.981c0.829,0.618,1.477,1.108,2.339,0.931c0.943-0.19,1.541-1.108,2.413-2.592
				c0.388-0.658,0.707-1.448,1.045-2.284c1.207-2.984,2.172-4.909,4.73-4.506c0.635,0.101,1.233,0.475,1.864,0.872
				c0.732,0.458,1.56,0.977,2.59,1.157c1.336,0.234,2.849-0.196,4.306-0.612c0.811-0.23,1.579-0.448,2.212-0.519
				c0.686-0.076,1.34-0.125,1.973-0.173c1.545-0.116,3.038-0.23,4.571-0.701c-0.478-0.624-0.96-1.222-1.446-1.79
				C739.714,514.537,738.65,514.618,737.464,514.707z"/>
		</g>
		<g>
			<path fill="#FFFFFF" d="M695.808,524.31c0.517-0.454,1.062-0.848,1.628-1.195c-0.14-0.191-0.278-0.381-0.418-0.571
				C696.589,523.116,696.181,523.702,695.808,524.31z"/>
		</g>
		<g>
			<path fill="#FFFFFF" d="M757.049,494.282c-0.447-0.023-0.888-0.064-1.311-0.139c-0.267-0.047-0.536-0.101-0.806-0.156
				c-0.359,1.155-0.741,2.303-1.145,3.444l1.84,1.123C756.137,497.139,756.609,495.715,757.049,494.282z"/>
		</g>
		<g>
			<path fill="#FFFFFF" d="M792.685,455.099c0.719-0.027,1.439-0.058,2.159-0.069c2.783-13.872,5.064-27.778,6.862-41.708
				c-0.671-0.212-1.352-0.406-2.043-0.585C797.845,426.886,795.523,441.011,792.685,455.099z"/>
		</g>
		<g>
			<path fill="#FFFFFF" d="M799.937,410.642c0.702,0.179,1.379,0.374,2.043,0.579c1.794-14.301,3.062-28.624,3.814-42.959
				c-0.705,0.023-1.408,0.059-2.11,0.101C802.939,382.471,801.694,396.567,799.937,410.642z"/>
		</g>
		<g>
			<path fill="#FFFFFF" d="M803.8,366.25c0.701-0.041,1.405-0.073,2.11-0.094c0.715-14.626,0.885-29.262,0.515-43.894
				c-0.695,0.101-1.382,0.193-2.096,0.315C804.692,337.135,804.517,351.697,803.8,366.25z"/>
		</g>
		<g>
			<path fill="#FFFFFF" d="M782.208,498.815c0.126,0.014,0.253,0.018,0.379,0.034c0.574,0.072,1.139,0.201,1.707,0.31
				c3.878-13.958,7.244-27.965,10.113-42.009c-0.72,0.014-1.44,0.037-2.159,0.066C789.395,471.123,786.053,484.993,782.208,498.815z
				"/>
		</g>
		<g>
			<path fill="#FFFFFF" d="M804.396,285.889c-0.669,0.304-1.343,0.612-2.023,0.926c0.962,11.208,1.593,22.424,1.913,33.643
				c0.711-0.118,1.403-0.214,2.096-0.313C806.051,308.721,805.39,297.301,804.396,285.889z"/>
		</g>
		<g>
			<path fill="#FFFFFF" d="M756.972,540.704c-2.551,1.383-5.462,2.415-8.576,2.457c-2.235-0.021-4.139-0.95-6.167-1.988
				c-3.392-1.735-7.235-3.702-12.299,0.181c-0.353,0.272-0.703,0.57-1.055,0.872c-1.068,0.916-2.081,1.782-3.202,1.782
				c-0.023,0-0.046,0-0.07-0.002c-0.941-0.03-1.691-0.682-2.558-1.435c-0.644-0.561-1.311-1.14-2.145-1.549
				c-0.563-0.275-1.14-0.437-1.721-0.525c0.267,0.21,0.532,0.407,0.801,0.64c1.456,1.261,3.036,2.918,4.566,4.8
				c0.313,0.086,0.633,0.16,0.989,0.171c2.003,0.059,3.422-1.186,4.709-2.286c0.323-0.277,0.642-0.551,0.967-0.8
				c4.01-3.077,6.68-1.708,10.062,0.023c2.168,1.108,4.452,2.212,7.151,2.218c3.723-0.049,7.148-1.338,10.076-3.009
				c-0.334-0.383-0.653-0.777-1.03-1.131C757.313,540.974,757.135,540.846,756.972,540.704z"/>
		</g>
		<g>
			<path fill="#FFFFFF" d="M781.623,500.872c-0.79,2.804-1.556,5.609-2.387,8.409c-1.927,6.49-6.649,18.686-16.611,27.443
				c-1.064,0.934-2.337,1.921-3.746,2.841c0.009,0.009,0.02,0.016,0.029,0.024c0.518,0.486,0.968,1.012,1.412,1.54
				c1.383-0.925,2.636-1.9,3.692-2.828c10.359-9.103,15.246-21.715,17.238-28.423c0.859-2.893,1.651-5.792,2.467-8.689
				c-0.465-0.085-0.928-0.196-1.393-0.254C782.092,500.906,781.857,500.895,781.623,500.872z"/>
		</g>
		<g>
			<path fill="#FFFFFF" d="M819.782,321.648c-0.125-0.712-0.249-1.422-0.373-2.13c-3.914-0.259-8.261-0.049-13.027,0.628
				c-0.693,0.098-1.385,0.195-2.096,0.313c-0.395,0.066-0.763,0.102-1.164,0.174c-9.754,1.748-19.278,4.524-28.373,8.216
				c-0.71,0.288-1.421,0.577-2.126,0.877c-1.219,0.518-2.43,1.053-3.632,1.605c-0.095,0.816-0.188,1.633-0.279,2.45
				c1.273-0.598,2.555-1.18,3.847-1.74c0.706-0.305,1.417-0.598,2.127-0.892c9.217-3.812,18.891-6.669,28.809-8.446
				c0.287-0.052,0.55-0.077,0.835-0.125c0.714-0.121,1.401-0.214,2.096-0.315C811.365,321.544,815.821,321.34,819.782,321.648z"/>
		</g>
		<g>
			<path fill="#FFFFFF" d="M802.116,366.358c-9.784,0.685-19.562,1.851-29.266,3.479c-0.712,0.119-1.42,0.257-2.131,0.381
				c-1.735,0.304-3.47,0.608-5.2,0.941c-0.046,0.725-0.099,1.449-0.143,2.174c1.731-0.337,3.467-0.648,5.204-0.955
				c0.71-0.126,1.419-0.261,2.13-0.381c9.799-1.66,19.674-2.85,29.555-3.543c0.471-0.033,0.945-0.063,1.419-0.091
				c0.702-0.042,1.406-0.078,2.11-0.101c3.457-0.112,6.906,0.07,9.94,1.197c4.684,1.74,8.445,5.846,10.319,11.266
				c0.117,0.338,0.208,0.682,0.31,1.023c0.173-1.62,0.332-3.136,0.471-4.522c-2.301-4.613-5.956-8.099-10.369-9.738
				c-3.301-1.227-6.938-1.441-10.555-1.332c-0.705,0.021-1.409,0.053-2.11,0.094C803.237,366.282,802.674,366.319,802.116,366.358z"
				/>
		</g>
		<g>
			<path fill="#FFFFFF" d="M783.63,408.779c-4.648-0.04-9.304,0.115-13.955,0.419c-0.709,0.046-1.418,0.09-2.127,0.144
				c-1.35,0.104-2.698,0.229-4.047,0.361c-0.003,0.064-0.006,0.129-0.009,0.193c-0.029,0.643-0.051,1.289-0.077,1.933
				c1.305-0.13,2.61-0.257,3.916-0.36c0.709-0.056,1.419-0.096,2.127-0.144c4.717-0.318,9.44-0.481,14.156-0.445
				c5.075,0.038,10.807,0.496,16.048,1.856c0.691,0.179,1.372,0.373,2.043,0.585c5.518,1.743,10.281,4.626,12.808,9.299
				c1.022,1.891,2.824,5.22,5.764,5.22c0.15,0,0.318-0.054,0.475-0.072c0.095-0.717,0.188-1.427,0.282-2.14
				c-0.044,0.008-0.088-0.001-0.132,0.013c-1.691,0.49-2.997-1.167-4.542-4.021c-2.585-4.78-7.466-8.272-14.381-10.401
				c-0.664-0.204-1.342-0.4-2.043-0.579C795.295,409.458,789.845,408.825,783.63,408.779z"/>
		</g>
		<g>
			<path fill="#FFFFFF" d="M790.952,455.155l-0.42,0.023c-2.326,0.127-4.732,0.262-6.661-0.561
				c-1.902-0.815-3.166-2.465-4.506-4.213c-1.518-1.984-3.088-4.034-5.709-4.986c-2.476-0.899-5.13-0.549-8.062,0.015
				c-0.148,0.029-0.294,0.055-0.444,0.084l-1.724,0.339l-1.389,0.273c-0.056,0.729-0.129,1.454-0.193,2.182l1.276-0.251l2.182-0.429
				l0.255-0.05c2.794-0.551,5.285-0.948,7.383-0.186c2.041,0.741,3.36,2.463,4.757,4.287c1.444,1.887,2.94,3.837,5.347,4.869
				c2.377,1.017,5.032,0.87,7.603,0.726l0.418-0.023c0.393-0.021,0.788-0.02,1.181-0.036c0.719-0.03,1.439-0.052,2.159-0.066
				c7.4-0.145,14.829,0.53,21.99,1.991c0.101-0.694,0.202-1.388,0.303-2.084c-7.124-1.447-14.503-2.142-21.855-2.026
				c-0.721,0.011-1.44,0.042-2.159,0.069C792.107,455.121,791.529,455.123,790.952,455.155z"/>
		</g>
		<g>
			<path fill="#FFFFFF" d="M782.208,498.815c-4.84-0.535-9.718,0.284-14.698,1.26c-2.681,0.524-5.454,1.066-7.886,0.424
				c-1.435-0.38-2.727-1.171-3.979-1.935l-0.017-0.01l-1.84-1.123l-5.858-3.574c-0.732,0.334-1.335,0.789-1.829,1.346l6.929,4.228
				l1.521,0.928c0.097,0.059,0.202,0.121,0.301,0.181c1.242,0.756,2.631,1.567,4.235,1.992c2.894,0.766,5.91,0.175,8.827-0.393
				c4.692-0.919,9.266-1.694,13.711-1.266c0.234,0.023,0.468,0.033,0.701,0.063c0.465,0.059,0.928,0.169,1.393,0.254
				c3.274,0.601,6.523,1.782,9.676,2.965c4.443,1.668,8.998,3.379,13.69,3.379c0.466,0,0.936-0.06,1.405-0.095
				c0.135-0.701,0.269-1.406,0.405-2.127c-4.899,0.557-9.709-1.228-14.763-3.124c-3.179-1.194-6.458-2.385-9.837-3.029
				c-0.568-0.108-1.133-0.237-1.707-0.31C782.46,498.833,782.334,498.829,782.208,498.815z"/>
		</g>
		<g>
			<path fill="#FFFFFF" d="M758.88,539.565c-0.669-0.627-1.393-1.205-2.118-1.781c-0.992-0.789-1.929-1.534-2.71-2.398
				c-2.218-2.455-3.225-5.615-4.289-8.96c-0.855-2.683-1.739-5.458-3.308-7.905c-0.745-1.162-1.501-2.227-2.264-3.247
				c-0.436-0.584-0.875-1.156-1.319-1.695c-0.949-1.153-1.917-2.208-2.91-3.167c-0.258,0.203-0.524,0.4-0.828,0.563
				c-0.379,0.202-0.769,0.341-1.163,0.451c0.946,0.871,1.871,1.829,2.776,2.886c0.486,0.568,0.968,1.166,1.446,1.79
				c0.84,1.098,1.67,2.273,2.49,3.553c1.421,2.214,2.225,4.737,3.077,7.407c1.085,3.411,2.208,6.938,4.734,9.733
				c0.895,0.992,1.946,1.826,2.961,2.634c0.52,0.412,1.021,0.84,1.518,1.274c0.163,0.142,0.341,0.27,0.498,0.418
				c0.378,0.354,0.696,0.748,1.03,1.131c2.781,3.187,4.157,7.29,5.018,11.269c0.661-0.256,1.322-0.513,1.982-0.771
				c-0.895-4.042-2.319-8.222-5.18-11.621c-0.444-0.528-0.894-1.054-1.412-1.54C758.9,539.581,758.889,539.574,758.88,539.565z"/>
		</g>
		<g>
			<path fill="#FFFFFF" d="M697.018,522.545c0.139,0.19,0.278,0.379,0.418,0.571c3.097,4.241,6.273,8.834,8.906,13.718
				c0.81-0.032,1.604-0.038,2.389-0.017c-2.727-5.245-6.101-10.141-9.386-14.65c-0.315-0.432-0.629-0.86-0.941-1.285
				C697.918,521.416,697.452,521.968,697.018,522.545z"/>
		</g>
	</g>
	<g>
		<g>
			<path fill="#1C2C3D" d="M801.514,132.435c0,0-29.688-9.628-24.071-36.641c6.542-31.464,44.219-25.319,55.72-28.796
				c11.501-3.477,22.734-19.792,39.583-16.582s18.9,14.888,30.401,19.703c11.501,4.814,23.803-5.082,35.304,5.884
				c11.501,10.966,5.349,29.153,7.489,37.979s18.989,12.838,17.117,36.909s-31.292,38.781-41.456,50.282
				c-10.163,11.501-9.361,30.757-17.117,32.095c-7.756,1.337-13.64-3.209-14.71-1.872c-1.07,1.337,0,8.291-12.57,5.617
				C864.634,234.336,801.514,132.435,801.514,132.435z"/>
		</g>
	</g>
	<g>
		<g>
			<path fill="#F3A771" d="M475.685,970.469c0,0-36.628,113.437-40.702,130.602c-4.074,17.165-21.092,39.765-13.482-7.466
				s25.533-155.899,25.533-155.899L475.685,970.469z"/>
		</g>
	</g>
	<g>
		<g>
			<path fill="#F3A771" d="M270.946,953.159c0,0-60.325,120.663-65.909,140.744c-5.584,20.082,3.652,24.23,16.216,0.048
				c12.564-24.181,96.618-150.997,96.618-150.997L270.946,953.159z"/>
		</g>
	</g>
	<g>
		<g>
			<path fill="#1F1F1D" d="M437.514,1096.174c0,0-1.295,11.561-4.336,17.053c-3.041,5.493-22.237,14.301-30.363,18.735
				c-8.126,4.435-21.207,9.465-32.009,13.526c-10.802,4.062-26.883,5.425-38.003,3.91c-6.062-0.826-9.88-3.287-7.224-10.771
				c2.656-7.485,14.976-13.488,32.998-18.219c15.748-4.134,30.352-8.509,37.059-11.471c14.246-6.292,22.593-14.048,24.365-14.646
				C421.774,1093.693,425.572,1100.371,437.514,1096.174z"/>
		</g>
	</g>
	<g>
		<g>
			<path fill="#1F1F1D" d="M226.706,1086.963c0,0-2.973,12.401-7.387,17.302s-26.513,10.836-35.909,14.107
				s-23.925,6.935-35.984,9.524c-12.06,2.589-30.141,0.301-41.221-2.496c-6.041-1.525-9.39-4.347-4.905-11.205
				c4.485-6.858,18.56-11.126,38.2-13.485c17.162-2.061,33.205-4.491,40.796-6.521c16.123-4.312,26.523-10.742,28.486-11.101
				S213.442,1089.543,226.706,1086.963z"/>
		</g>
	</g>
	<g>
		<g>
			<path fill="#1C2C3D" d="M632.899,1132.278c0.162,4.688,5.04,7.055,6.776,1.516c2.318-7.4,83.089-355.611,83.089-355.611
				s-37.444-11.768-36.374-8.559S632.721,1127.107,632.899,1132.278z"/>
		</g>
	</g>
	<g>
		<g>
			<g>
				<path fill="#0E161F" d="M715.064,810.985c4.943-22.289,8.003-36.1,8.003-36.1s-37.321-11.73-36.255-8.53
					c0.215,0.643-1.82,16.086-5.203,40.383C692.269,810.263,703.786,811.659,715.064,810.985z"/>
			</g>
		</g>
	</g>
	<g>
		<g>
			<path fill="#1C2C3D" d="M1044.359,1127.092c0.2,4.686-4.481,7.423-6.638,2.034c-2.882-7.199-115.212-381.788-115.212-381.788
				s36.424-14.621,35.605-11.339C957.295,739.282,1044.138,1121.923,1044.359,1127.092z"/>
		</g>
	</g>
	<g>
		<g>
			<g>
				<path fill="#0E161F" d="M964.528,767.599c-4.406-21.109-7.027-34.177-6.881-34.759c0.816-3.271-35.489,11.302-35.489,11.302
					s4.875,16.963,12.611,43.864c1.386-0.87,2.736-1.756,4.046-2.613C947.297,779.843,956.596,774.271,964.528,767.599z"/>
			</g>
		</g>
	</g>
	<g>
		<g>
			<path fill="#1C2C3D" d="M505.887,1117.996c-0.248,4.684,4.405,7.468,6.617,2.101c2.955-7.169,118.542-378.662,118.542-378.662
				s-36.274-14.991-35.488-11.7C596.344,733.026,506.161,1112.829,505.887,1117.996z"/>
		</g>
	</g>
	<g>
		<g>
			<path fill="#0E161F" d="M579.721,807.081c6.626,8.463,13.831,18.272,22.473,25.786c16.557-52.433,28.852-91.432,28.852-91.432
				s-36.274-14.991-35.489-11.7c0.227,0.951-6.874,32.094-17.084,75.983C578.9,806.127,579.319,806.568,579.721,807.081z"/>
		</g>
	</g>
	<g>
		<g>
			<path fill="#1C2C3D" d="M916.411,1110.935c-0.336,4.678-5.3,6.862-6.827,1.262c-2.04-7.481-68.956-408.676-68.956-408.676
				s37.857-10.362,36.668-7.195S916.782,1105.775,916.411,1110.935z"/>
		</g>
	</g>
	<g>
		<g>
			<g>
				<path fill="#0E161F" d="M880.3,732.355c-11.551,1.026-22.617,5.325-32.457,11.833c4.088,24.474,9.566,57.245,15.576,93.136
					c8.931-2.313,17.981-4.926,25.997-8.982C885.792,790.784,882.552,756.827,880.3,732.355z"/>
			</g>
		</g>
	</g>
	<g>
		<g>
			<path fill="#F8BB16" d="M565.144,690.457c0,40.653,72.035,110.548,225.375,110.548s189.002-67.042,189.002-67.042
				s121.246-76.314,121.246-273.874c0-98.423-47.072-215.39-141.216-215.39s-126.952,62.763-126.952,62.763L722.764,621.989
				L565.144,690.457z"/>
		</g>
	</g>
	<g>
		<g>
			<path fill="#1C2C3D" d="M700.89,792.952c12.566,2.925,25.284,5.202,38.08,6.83c88.533,11.263,197.534-6.277,263.464-71.034
				c16.243-15.954,27.566-36.181,40.057-54.9c11.526-17.273,14.848-35.448,23.556-53.944
				c-19.307,41.005-64.436,84.614-112.315,81.044c-4.372-0.326-8.969-0.939-12.982,0.828c-3.257,1.434-5.66,4.244-8.061,6.87
				c-34.74,37.994-93.53,51.744-141.517,33.098c-34.978,16.5-75.811,19.052-113.002,9.039c-25.519-6.87-84.166-28.251-66.096-64.253
				c3.82-7.611,3.416-13.043,0.25-16.568c0,0-47.125,20.471-47.179,20.495c-10.016,4.442,20.048,43.01,22.857,46.578
				c10.981,13.946,20.156,21.034,36.626,29.028C648.936,777.863,674.58,786.828,700.89,792.952z"/>
		</g>
	</g>
	<g>
		<g>
			<path fill="#1C2C3D" d="M969.994,358.434c0.546,7.125,1.163,14.257,1.052,21.405c-0.315,20.253-2.907,40.836,1.515,60.813
				c1.482,6.694,15.802,44.632,25.96,42.255c-22.376,5.235-41.831,21.677-50.722,42.867c-8.891,21.19-6.993,46.592,4.949,66.226
				c-10.862,5.335-17.05,17.493-18.45,29.514c-1.375,11.811,1.875,22.817,3.134,34.363c-26.384,3.829-50.815,3.627-76.801,12.84
				c-25.232,8.946-49.065,21.425-72.377,34.474c-11.205,6.272-22.372,12.676-34.161,17.766c-3.277,1.415-6.73,2.75-10.295,2.573
				c-3.44-0.171-6.632-1.73-9.779-3.127c-46.49-20.637-99.986-10.206-150.849-10.592c-5.497-0.042-12.403-1.265-13.779-6.587
				c-1.061-4.105,2.022-8.042,5.025-11.035c15.787-15.735,35.21-27.197,53.822-39.461
				c104.347-68.758,188.354-167.989,238.948-282.253c8.487-19.167,16.431-39.312,31.324-54.063
				c17.46-17.292,49.775-25.85,66.552-2.902c6.457,8.832,4.604,15.16,4.231,25.295C969.053,345.346,969.493,351.887,969.994,358.434
				z"/>
		</g>
	</g>
	<g>
		<g>
			<path fill="#F3A771" d="M892.211,207.742c0,0-17.064,44.366,11.648,74.135c19.874,20.606-56.826,60.912-56.826,60.912
				l-62.769-15.228l18.219-23.286c0,0,40.185-16.533,43.899-27.304c3.714-10.771-8.264-42.264-8.264-42.264L892.211,207.742z"/>
		</g>
	</g>
	<g>
		<defs>
			<path id="SVGID_1_" d="M892.211,207.742c0,0-17.064,44.366,11.648,74.135c19.874,20.606-56.826,60.912-56.826,60.912
				l-62.769-15.228l18.219-23.286c0,0,40.185-16.533,43.899-27.304c3.714-10.771-8.264-42.264-8.264-42.264L892.211,207.742z"/>
		</defs>
		<clipPath id="SVGID_2_">
			<use xlink:href="#SVGID_1_"  overflow="visible"/>
		</clipPath>
		<g clip-path="url(#SVGID_2_)">
			<g>
				<path fill="#1C2C3D" d="M854.153,250.665c5.015-2.681,9.444-6.318,13.836-9.931c2.818-2.317,5.635-4.635,8.453-6.952
					c3.163-2.602,6.645-5.953,6.125-10.015c-7.372,1.289-14.745,2.578-22.117,3.867c-3.126,0.547-6.263,1.096-9.291,2.046
					c-7.742,2.43-16.602,9.25-14.822,18.5C838.112,257.414,848.451,253.714,854.153,250.665z"/>
			</g>
		</g>
	</g>
	<g>
		<g>
			<path fill="#5A90C8" d="M252.043,986.797c7.622,10.564,20.728,16.85,28.484,16.582c90.4-124.634,173.355-242.314,203.31-282.967
				c29.955-40.653,193.994-33.164,193.994-33.164l141.216-32.095c0,0-17.117-116.61-52.421-101.633
				c-35.304,14.977-269.595,51.351-324.155,104.842C387.91,711.854,252.043,986.797,252.043,986.797z"/>
		</g>
	</g>
	<g>
		<g>
			<path fill="#0E161F" d="M617.87,631.619c-18.304,4.214-36.608,8.429-54.912,12.643c-33.666,7.752-70.266,17.367-90.638,45.269
				c-6.447,8.83-10.807,18.977-15.113,29.027c-13.913,32.475-33.664,66.717-44.506,100.853
				c32.047-44.859,57.274-80.187,71.136-98.999c11.945-16.211,45.213-24.762,80.896-29.19c5.856-4.56,11.778-9.034,17.767-13.42
				c12.056-8.829,24.375-17.299,36.937-25.392c5.092-3.281,31.338-23.931,36.443-22.029
				C643.82,625.888,630.412,628.731,617.87,631.619z"/>
		</g>
	</g>
	<g>
		<g>
			<path fill="#5A90C8" d="M431.773,1000.705c0,0,29.955-315.597,62.05-339.133c32.095-23.536,293.131-93.074,293.131-93.074
				l103.773,20.327c0,0,5.349,50.282-72.748,90.935c-78.097,40.653-242.849,9.628-264.245,38.514
				c-9.094,36.909-70.786,260.145-86.121,286.177C450.317,1016.931,431.773,1000.705,431.773,1000.705z"/>
		</g>
	</g>
	<g>
		<g>
			<path fill="#ADC7E3" d="M775.937,356.252c0.07-0.947,0.145-1.893,0.227-2.839c1.174-13.652,3.61-27.161,6.043-40.646
				c2.738-15.18,10.288-21.19,22.83-29.224c6.944-4.449,18.623-14.883,27.206-15.664c2.669-0.243,4.595,16.049,4.874,17.722
				c0.781,4.682,1.827,9.466,2.455,14.12c0.714,5.291,0.016,11.173,0.021,16.518c0.005,5.523,0.009,11.046,0.014,16.569
				c2.427-4.597,2.309-9.354,3.388-14.264c2.584-11.759,4.714-23.623,7.834-35.309c0.478-1.79,1.076-3.823,2.487-5.118
				c1.11-1.019,2.78-1.658,4.092-2.412c3.059-1.758,6.118-3.516,9.177-5.273c5.695-3.273,11.391-6.546,17.086-9.819
				c1.163-0.668,2.326-1.337,3.489-2.005c0,0,73.818,36.73,82.376,52.065c8.559,15.334-41.366,181.513-39.94,206.475
				c1.426,24.962-5.706,105.556-38.514,125.526s-41.366,11.411-41.366,11.411l24.962-45.646c0,0-19.257,36.374-59.91,30.668
				c-24.654-3.46-48.542-19.095-68.05-33.687c-9.632-7.205-18.307-15.097-26.479-23.874c-5.054-5.428-10.361-9.632-17.396-12.509
				c-1.562-0.639-20.186-5.422-20.194-3.72c0.011-2.573,2.258-4.515,4.36-6c13.411-9.475,28.881-15.622,42.76-24.398
				c2.777-1.756,5.485-3.633,8.073-5.659c7.96-6.232,15.187-13.905,19.293-23.261c7.936-18.082,8.684-39.556,11.195-58.946
				c2.921-22.553,5.322-45.188,6.437-67.908C775.143,371.513,775.373,363.871,775.937,356.252z"/>
		</g>
	</g>
	<g>
		<g>
			<path fill="none" d="M836.326,395.042c-12.968-3.098-26.187-5.004-39.482-6.219c-3.46,12.491-6.455,26.32-9.195,42.377
				c12.716,1.082,25.364,2.966,37.848,5.63c0.703-2.349,1.419-4.692,2.153-7.018C831.539,417.464,834.364,406.078,836.326,395.042z"
				/>
		</g>
		<g>
			<path fill="none" d="M770.423,586.948c0.937-0.388,1.869-0.839,2.804-1.26c-2.106-1.88-4.208-3.843-6.308-5.891
				c-7.361,5.625-15.576,10.071-24.196,13.774C751.911,592.934,761.313,590.721,770.423,586.948z"/>
		</g>
		<g>
			<path fill="none" d="M854.244,416.145c1.297-4.725,2.687-9.57,4.18-14.471c-0.02-0.007-0.04-0.016-0.06-0.023
				c-6.574-2.431-13.247-4.445-19.991-6.127c-1.977,11.091-4.814,22.526-8.721,34.919c-0.712,2.258-1.407,4.533-2.091,6.814
				c6.64,1.465,13.225,3.172,19.751,5.076c0.605-2.302,1.209-4.603,1.806-6.892C850.801,428.995,852.482,422.553,854.244,416.145z"
				/>
		</g>
		<g>
			<path fill="none" d="M810.522,488.017c-2.684-0.597-5.35-1.088-7.984-1.443c-6.851-0.922-13.977-1.058-20.869-1.19
				c-0.818-0.016-1.642-0.035-2.464-0.052c-0.058,1.762-0.079,3.539-0.056,5.333c0.029,2.172,0.097,4.361,0.167,6.552
				c0.252,8.001,0.477,16.208-1.265,24.02c0.42,0.116,0.836,0.255,1.258,0.363c2.822,0.724,5.752,1.285,8.588,1.828
				c3.044,0.584,6.152,1.2,9.217,2.011c1.951-6.056,3.983-12.285,6.479-18.397C806.139,500.811,808.416,494.441,810.522,488.017z"/>
		</g>
		<g>
			<path fill="none" d="M826.959,439.304c-1.784,6.032-3.491,12.093-5.154,18.021c-2.699,9.631-5.463,19.447-8.591,29.176
				c6.105,1.501,12.303,3.598,18.518,6.253c6.12-15.749,10.759-32.155,15.042-48.369
				C840.227,442.477,833.62,440.769,826.959,439.304z"/>
		</g>
		<g>
			<path fill="none" d="M824.894,438.877c-12.412-2.64-24.982-4.507-37.604-5.58c-0.883,5.284-1.923,10.551-2.931,15.643
				c-2.293,11.598-4.453,22.673-5.041,34.293c0.797,0.017,1.596,0.035,2.39,0.05c6.951,0.133,14.14,0.27,21.111,1.209
				c2.755,0.371,5.54,0.882,8.347,1.513c3.136-9.744,5.909-19.588,8.616-29.246C821.43,450.878,823.124,444.866,824.894,438.877z"/>
		</g>
		<g>
			<path fill="none" d="M910.857,312.367c-8.2-2.204-17.189-3.202-26.402-4.001c-5.615-0.487-11.197-0.946-16.762-1.374
				c-8.127,9.941-14.681,21.459-19.065,34.043c10.911,1.42,21.702,3.805,32.203,7.111c3.641-6.196,7.663-12.187,12.188-17.828
				C898.427,323.573,904.438,317.562,910.857,312.367z"/>
		</g>
		<g>
			<path fill="none" d="M843.823,349.672c0.591-2.325,1.271-4.613,2.003-6.877c-5.109-0.593-10.241-0.977-15.377-1.135
				c-6.373-0.197-12.744-0.05-19.102,0.338c-0.555,2.595-1.18,5.178-1.891,7.746c-1.556,5.625-3.525,11.204-5.429,16.601
				c-0.903,2.558-1.805,5.117-2.67,7.687c-1.38,4.109-2.689,8.342-3.938,12.734c13.217,1.22,26.367,3.125,39.287,6.206
				c0.841-5.001,1.535-10.112,2.203-15.063C840.164,368.593,841.462,358.959,843.823,349.672z"/>
		</g>
		<g>
			<path fill="none" d="M847.944,343.064c-0.766,2.343-1.472,4.715-2.085,7.125c-2.33,9.171-3.62,18.743-4.869,27.999
				c-0.676,5.01-1.377,10.186-2.234,15.26c6.837,1.701,13.606,3.745,20.281,6.21c5.142-16.578,11.636-33.781,20.695-49.655
				C869.364,346.77,858.713,344.44,847.944,343.064z"/>
		</g>
		<g>
			<path fill="#FFFFFF" d="M859.038,399.659c0.019,0.007,0.038,0.013,0.056,0.019c0.637,0.236,1.274,0.488,1.91,0.73
				c5.154-16.634,11.677-33.893,20.79-49.761c-0.685-0.222-1.374-0.43-2.061-0.644C870.673,365.878,864.18,383.081,859.038,399.659z
				"/>
		</g>
		<g>
			<path fill="#FFFFFF" d="M893.018,330.318c-4.525,5.641-8.547,11.632-12.188,17.828c0.686,0.216,1.376,0.42,2.06,0.644
				c3.527-5.963,7.411-11.727,11.766-17.156c5.641-7.033,11.954-13.232,18.693-18.541c-0.824-0.253-1.651-0.499-2.493-0.725
				C904.438,317.562,898.427,323.573,893.018,330.318z"/>
		</g>
		<g>
			<path fill="#FFFFFF" d="M854.244,416.145c-1.762,6.408-3.443,12.85-5.125,19.296c-0.598,2.289-1.201,4.59-1.806,6.892
				c0.673,0.196,1.344,0.398,2.015,0.599c0.611-2.325,1.221-4.649,1.824-6.96c1.68-6.436,3.36-12.869,5.118-19.271
				c1.28-4.662,2.651-9.44,4.122-14.274c-0.656-0.25-1.311-0.509-1.967-0.752C856.931,406.575,855.541,411.42,854.244,416.145z"/>
		</g>
		<g>
			<path fill="#FFFFFF" d="M831.733,492.754c0.645,0.275,1.289,0.539,1.934,0.826c6.163-15.845,10.824-32.321,15.123-48.598
				c-0.671-0.201-1.343-0.402-2.015-0.598C842.492,460.598,837.853,477.005,831.733,492.754z"/>
		</g>
		<g>
			<path fill="#FFFFFF" d="M826.171,505.986c-0.243,0.526-0.013,1.152,0.513,1.395c0.143,0.066,0.293,0.097,0.441,0.097
				c0.395,0,0.775-0.226,0.954-0.61c1.724-3.724,3.303-7.515,4.823-11.331c-0.645-0.288-1.289-0.552-1.933-0.827
				C829.456,498.509,827.885,502.283,826.171,505.986z"/>
		</g>
		<g>
			<path fill="#FFFFFF" d="M950.666,294.452c-0.784-0.525-1.585-1.053-2.396-1.584c-12.302,3.307-24.368,9.437-35.337,17.902
				c0.829,0.241,1.656,0.488,2.469,0.756C926.388,303.281,938.44,297.446,950.666,294.452z"/>
		</g>
		<g>
			<path fill="#FFFFFF" d="M775.4,572.38c12.846-13.029,17.901-28.246,23.091-44.366c-0.671-0.202-1.344-0.391-2.024-0.57
				c-5.101,15.846-10.084,30.805-22.564,43.462c-2.158,2.188-4.444,4.213-6.824,6.115c0.506,0.503,1.014,0.988,1.521,1.481
				C770.967,576.596,773.243,574.567,775.4,572.38z"/>
		</g>
		<g>
			<path fill="#FFFFFF" d="M915.903,273.731c-0.861-0.473-1.713-0.94-2.555-1.399c-17.745,5.916-33.961,17.354-46.579,32.481
				c0.857,0.065,1.716,0.133,2.574,0.2C882.021,290.218,898.24,279.182,915.903,273.731z"/>
		</g>
		<g>
			<path fill="#FFFFFF" d="M735.489,596.479c0.526-0.2,1.05-0.404,1.574-0.608c-0.792-0.002-1.576-0.044-2.363-0.07
				C734.964,596.027,735.223,596.253,735.489,596.479z"/>
		</g>
		<g>
			<path fill="#FFFFFF" d="M826.959,439.304c-0.686-0.151-1.377-0.28-2.065-0.426c-1.771,5.988-3.464,12-5.113,17.881
				c-2.707,9.658-5.479,19.502-8.616,29.246c0.681,0.153,1.365,0.329,2.049,0.496c3.128-9.729,5.892-19.545,8.591-29.176
				C823.468,451.397,825.175,445.336,826.959,439.304z"/>
		</g>
		<g>
			<path fill="#FFFFFF" d="M803.593,507.043c-2.497,6.112-4.529,12.341-6.479,18.397c0.677,0.18,1.351,0.371,2.023,0.573
				c1.932-5.996,3.942-12.157,6.402-18.176c2.59-6.338,4.9-12.811,7.034-19.332c-0.685-0.167-1.369-0.336-2.051-0.488
				C808.416,494.441,806.139,500.811,803.593,507.043z"/>
		</g>
		<g>
			<path fill="#FFFFFF" d="M867.693,306.992c-0.845-0.065-1.692-0.134-2.536-0.197c-7.949,9.977-14.357,21.457-18.661,33.956
				c0.711,0.084,1.42,0.191,2.131,0.283C853.012,328.451,859.566,316.933,867.693,306.992z"/>
		</g>
		<g>
			<path fill="#FFFFFF" d="M742.723,593.57c8.62-3.703,16.835-8.148,24.196-13.774c-0.506-0.493-1.012-0.983-1.517-1.486
				c-8.606,6.526-18.434,11.423-28.699,15.447C738.696,593.772,740.704,593.71,742.723,593.57z"/>
		</g>
		<g>
			<path fill="#FFFFFF" d="M845.86,350.189c0.612-2.41,1.318-4.782,2.085-7.125c-0.706-0.09-1.411-0.187-2.119-0.269
				c-0.732,2.264-1.412,4.552-2.003,6.877c-2.36,9.287-3.658,18.921-4.914,28.236c-0.668,4.951-1.362,10.063-2.203,15.063
				c0.683,0.163,1.37,0.308,2.052,0.477c0.858-5.074,1.559-10.25,2.234-15.26C842.24,368.932,843.53,359.36,845.86,350.189z"/>
		</g>
		<g>
			<path fill="#FFFFFF" d="M838.373,395.524c-0.68-0.17-1.365-0.319-2.047-0.482c-1.962,11.035-4.787,22.421-8.677,34.769
				c-0.734,2.326-1.449,4.669-2.153,7.018c0.687,0.147,1.378,0.276,2.065,0.427c0.684-2.282,1.379-4.556,2.091-6.814
				C833.559,418.051,836.396,406.615,838.373,395.524z"/>
		</g>
		<g>
			<path fill="#FFFFFF" d="M779.316,497.218c-0.07-2.191-0.139-4.38-0.167-6.552c-0.023-1.794-0.002-3.57,0.056-5.333
				c-0.699-0.015-1.396-0.028-2.097-0.045c-0.061,1.792-0.085,3.593-0.061,5.404c0.029,2.187,0.097,4.388,0.167,6.592
				c0.247,7.816,0.469,15.834-1.186,23.37c0.672,0.204,1.347,0.397,2.023,0.584C779.793,513.426,779.568,505.219,779.316,497.218z"
				/>
		</g>
		<g>
			<path fill="#FFFFFF" d="M815.407,305.119c-0.701,0.016-1.404,0.015-2.104,0.035c-0.428,11.671-1.376,23.38-3.695,34.836
				c0.722-0.049,1.445-0.082,2.167-0.124C814.05,328.408,814.984,316.738,815.407,305.119z"/>
		</g>
		<g>
			<path fill="#FFFFFF" d="M774.273,526.624c-5.264,13.485-17.928,22.5-31.549,31.298c-8.606,5.558-18.2,11.725-28.722,15.173
				c0.334,0.596,0.709,1.21,1.111,1.835c10.586-3.554,20.157-9.693,28.751-15.241c13.924-8.994,26.874-18.232,32.366-32.302
				c0.527-1.35,0.955-2.721,1.332-4.103c-0.676-0.186-1.349-0.379-2.019-0.582C775.183,524.027,774.774,525.338,774.273,526.624z"/>
		</g>
		<g>
			<path fill="#FFFFFF" d="M815.806,285.018c0.006-0.581-0.458-1.057-1.039-1.063c-0.606,0.025-1.053,0.459-1.062,1.039
				c-0.069,5.976-0.143,12.01-0.334,18.059c0.7-0.02,1.403-0.02,2.104-0.035C815.664,296.986,815.738,290.973,815.806,285.018z"/>
		</g>
		<g>
			<path fill="#FFFFFF" d="M801.356,374.032c0.865-2.57,1.767-5.129,2.67-7.687c1.904-5.397,3.873-10.976,5.429-16.601
				c0.711-2.568,1.335-5.151,1.891-7.746c-0.729,0.045-1.458,0.083-2.186,0.134c-0.516,2.362-1.084,4.714-1.73,7.051
				c-1.537,5.555-3.493,11.1-5.385,16.462c-0.906,2.568-1.813,5.137-2.679,7.717c-1.432,4.261-2.788,8.652-4.08,13.216
				c0.711,0.062,1.422,0.121,2.133,0.187C798.667,382.373,799.976,378.14,801.356,374.032z"/>
		</g>
		<g>
			<path fill="#FFFFFF" d="M796.844,388.823c-0.71-0.065-1.42-0.121-2.131-0.182c-3.447,12.503-6.432,26.334-9.162,42.368
				c0.7,0.055,1.398,0.131,2.098,0.191C790.388,415.144,793.384,401.315,796.844,388.823z"/>
		</g>
		<g>
			<path fill="#FFFFFF" d="M784.36,448.94c1.008-5.092,2.048-10.359,2.931-15.643c-0.7-0.059-1.399-0.137-2.099-0.192
				c-0.874,5.2-1.899,10.399-2.893,15.428c-2.213,11.2-4.463,22.722-5.074,34.654c0.701,0.017,1.397,0.03,2.096,0.045
				C779.907,471.613,782.067,460.538,784.36,448.94z"/>
		</g>
		<g>
			<path fill="#FFFFFF" d="M788.642,313.125c0.528-2.153,1.066-4.305,1.583-6.459c-0.61,0.062-1.218,0.127-1.827,0.192
				C788.375,308.888,788.49,310.968,788.642,313.125z"/>
		</g>
		<g>
			<path fill="#FFFFFF" d="M793.794,291.454c-1.499,1.784-2.602,3.56-3.407,5.344c-0.617,2.644-1.222,5.288-1.854,7.931
				c0.736-0.078,1.473-0.15,2.21-0.223C791.781,300.156,792.797,295.805,793.794,291.454z"/>
		</g>
		<g>
			<path fill="#FFFFFF" d="M770.423,586.948c-9.11,3.774-18.512,5.987-27.7,6.623c-2.019,0.14-4.027,0.202-6.02,0.187
				c-1.516-0.011-3.026-0.056-4.522-0.157c0.821,0.731,1.664,1.465,2.519,2.201c0.787,0.026,1.571,0.068,2.363,0.07
				c0.065,0,0.129,0.006,0.195,0.006c11.168,0,22.792-2.358,33.97-6.987c1.245-0.516,2.484-1.101,3.724-1.674
				c-0.575-0.501-1.151-1.015-1.726-1.529C772.292,586.108,771.36,586.559,770.423,586.948z"/>
		</g>
		<g>
			<path fill="#FFFFFF" d="M814.214,558.724c0.409-0.412,0.405-1.078-0.008-1.486c-0.414-0.41-1.079-0.407-1.486,0.008
				c-12.026,12.152-24.584,21.373-37.398,27.5c0.577,0.51,1.154,1.007,1.732,1.504C789.8,580.019,802.274,570.789,814.214,558.724z"
				/>
		</g>
		<g>
			<path fill="#FFFFFF" d="M777.423,625.112c0.849,0.458,1.698,0.907,2.546,1.349c10.855-3.96,21.092-9.532,30.303-16.507
				c-0.743-0.312-1.485-0.643-2.227-0.975C798.732,615.879,788.383,621.324,777.423,625.112z"/>
		</g>
		<g>
			<path fill="#FFFFFF" d="M830.442,590.364c4.112-5.135,7.82-10.68,11.406-16.042l1.839-2.744c0.323-0.483,0.196-1.136-0.285-1.459
				c-0.483-0.325-1.136-0.194-1.459,0.285l-1.841,2.75c-3.561,5.325-7.244,10.832-11.301,15.896
				c-5.54,6.915-11.893,13.093-18.843,18.474c0.737,0.32,1.474,0.629,2.211,0.928C818.886,603.141,825.046,597.1,830.442,590.364z"
				/>
		</g>
		<g>
			<path fill="#FFFFFF" d="M921.453,515.621c-0.017-0.58-0.534-1.005-1.081-1.021c-0.58,0.017-1.038,0.502-1.02,1.081
				c0.742,25.351-1.197,47.774-5.882,68.043c0.7,0.09,1.399,0.172,2.1,0.251C920.257,563.589,922.196,541.061,921.453,515.621z"/>
		</g>
		<g>
			<path fill="#FFFFFF" d="M890.245,643.171c4.909-7.118,9.287-14.816,13.091-23.026c-0.681-0.206-1.355-0.412-2.028-0.621
				c-4.406,9.469-9.587,18.244-15.471,26.211C887.254,644.941,888.724,644.085,890.245,643.171z"/>
		</g>
		<g>
			<path fill="#FFFFFF" d="M910.874,600.989c1.585-4.854,2.986-9.836,4.218-14.948c-0.7-0.08-1.399-0.172-2.097-0.263
				c-1.205,4.979-2.575,9.829-4.119,14.557c-1.95,5.973-4.193,11.726-6.682,17.262c0.674,0.208,1.35,0.413,2.03,0.617
				C906.698,612.686,908.929,606.944,910.874,600.989z"/>
		</g>
		<g>
			<path fill="#FFFFFF" d="M884.455,308.366c9.213,0.799,18.202,1.797,26.402,4.001c0.841,0.226,1.669,0.473,2.493,0.725
				c7.407,2.271,14.1,5.649,19.613,10.954c0.203,0.196,0.466,0.294,0.728,0.294c0.276,0,0.551-0.107,0.756-0.322
				c0.403-0.418,0.391-1.083-0.029-1.486c-5.432-5.227-11.897-8.655-19.017-11.005c-0.813-0.268-1.639-0.515-2.469-0.756
				c-8.756-2.543-18.399-3.64-28.295-4.499c-5.121-0.444-10.214-0.863-15.295-1.259c-0.858-0.067-1.717-0.135-2.574-0.2
				c-7.338-0.556-14.638-1.032-21.902-1.37l-0.205,2.092c6.799,0.315,13.63,0.749,20.496,1.26c0.844,0.063,1.691,0.132,2.536,0.197
				C873.259,307.42,878.841,307.879,884.455,308.366z"/>
		</g>
		<g>
			<path fill="#FFFFFF" d="M840.001,305.348c-0.092-0.696-0.186-1.403-0.281-2.111c-8.119-0.3-16.199-0.397-24.246-0.221
				c-0.701,0.015-1.404,0.015-2.104,0.035c-3.769,0.106-7.532,0.261-11.288,0.503c-3.777,0.245-7.559,0.573-11.339,0.95
				c-0.737,0.074-1.473,0.145-2.21,0.223c-0.016,0.002-0.031,0.003-0.047,0.005c-0.05,0.703-0.081,1.41-0.089,2.125
				c0.609-0.065,1.218-0.13,1.827-0.192c3.999-0.406,8-0.754,11.994-1.013c3.687-0.239,7.382-0.394,11.084-0.5
				c0.7-0.02,1.403-0.019,2.104-0.035C823.563,304.936,831.759,305.037,840.001,305.348z"/>
		</g>
		<g>
			<path fill="#FFFFFF" d="M830.448,341.66c5.137,0.159,10.268,0.543,15.377,1.135c0.707,0.082,1.412,0.179,2.119,0.269
				c10.768,1.376,21.419,3.706,31.789,6.94c0.687,0.214,1.376,0.422,2.061,0.644c10.245,3.326,20.199,7.534,29.69,12.591
				c0.158,0.084,0.327,0.124,0.494,0.124c0.374,0,0.739-0.201,0.927-0.557c0.274-0.512,0.08-1.149-0.433-1.421
				c-9.462-5.042-19.377-9.254-29.581-12.595c-0.684-0.224-1.374-0.428-2.06-0.644c-10.501-3.306-21.292-5.691-32.203-7.111
				c-0.711-0.092-1.42-0.199-2.131-0.283c-5.31-0.629-10.645-1.028-15.984-1.194c-6.259-0.194-12.506-0.057-18.738,0.308
				c-0.722,0.042-1.445,0.075-2.167,0.124c-7.092,0.479-14.162,1.263-21.194,2.245c-0.073,0.72-0.141,1.441-0.227,2.16
				c6.965-0.982,13.96-1.771,20.973-2.263c0.728-0.051,1.458-0.09,2.186-0.134C817.705,341.61,824.075,341.463,830.448,341.66z"/>
		</g>
		<g>
			<path fill="#FFFFFF" d="M836.326,395.042c0.682,0.163,1.367,0.312,2.047,0.482c6.744,1.682,13.417,3.696,19.991,6.127
				c0.02,0.007,0.04,0.016,0.06,0.023c0.657,0.243,1.312,0.502,1.967,0.752c1.144,0.436,2.289,0.868,3.434,1.312
				c7.905,3.069,16.079,6.244,24.698,6.748c0.021,0.002,0.042,0.002,0.063,0.002c0.551,0,1.015-0.431,1.047-0.99
				c0.034-0.58-0.409-1.076-0.988-1.11c-8.289-0.485-16.305-3.599-24.058-6.609c-1.195-0.464-2.389-0.915-3.584-1.37
				c-0.637-0.242-1.273-0.494-1.91-0.73c-0.019-0.007-0.038-0.013-0.056-0.019c-6.674-2.465-13.443-4.509-20.281-6.21
				c-0.682-0.17-1.369-0.314-2.052-0.477c-12.92-3.08-26.07-4.985-39.287-6.206c-0.711-0.066-1.421-0.125-2.133-0.187
				c-6.599-0.574-13.21-0.998-19.813-1.319c-0.267,0.688-0.524,1.379-0.782,2.07c6.674,0.318,13.356,0.738,20.023,1.312
				c0.71,0.061,1.421,0.117,2.131,0.182C810.138,390.039,823.358,391.944,836.326,395.042z"/>
		</g>
		<g>
			<path fill="#FFFFFF" d="M824.894,438.877c0.687,0.146,1.378,0.276,2.065,0.426c6.661,1.465,13.268,3.173,19.815,5.081
				c0.673,0.196,1.344,0.397,2.015,0.598c14.906,4.455,29.471,10.023,43.472,16.724c0.146,0.07,0.302,0.103,0.454,0.103
				c0.391,0,0.768-0.22,0.948-0.597c0.251-0.524,0.029-1.152-0.494-1.402c-14.13-6.763-28.814-12.384-43.842-16.879
				c-0.672-0.201-1.343-0.403-2.015-0.599c-6.527-1.903-13.111-3.611-19.751-5.076c-0.686-0.151-1.377-0.28-2.065-0.427
				c-12.484-2.664-25.132-4.547-37.848-5.63c-0.7-0.06-1.398-0.136-2.098-0.191c-5.381-0.42-10.772-0.685-16.166-0.816
				c-0.021,0.704-0.019,1.403-0.051,2.109c5.288,0.133,10.576,0.391,15.857,0.803c0.7,0.055,1.399,0.132,2.099,0.192
				C799.913,434.371,812.482,436.237,824.894,438.877z"/>
		</g>
		<g>
			<path fill="#FFFFFF" d="M781.669,485.385c6.892,0.131,14.019,0.268,20.869,1.19c2.634,0.355,5.3,0.846,7.984,1.443
				c0.682,0.152,1.366,0.321,2.051,0.488c6.061,1.48,12.218,3.562,18.396,6.204c0.644,0.276,1.288,0.54,1.933,0.827
				c13.461,6.008,26.969,14.651,39.688,25.53c0.198,0.169,0.441,0.253,0.682,0.253c0.296,0,0.591-0.125,0.798-0.369
				c0.378-0.441,0.327-1.104-0.116-1.48c-12.896-11.032-26.608-19.797-40.287-25.891c-0.645-0.287-1.289-0.551-1.934-0.826
				c-6.215-2.655-12.413-4.752-18.518-6.253c-0.684-0.168-1.368-0.343-2.049-0.496c-2.806-0.63-5.592-1.142-8.347-1.513
				c-6.97-0.939-14.159-1.076-21.111-1.209c-0.793-0.015-1.592-0.034-2.39-0.05c-0.698-0.014-1.395-0.027-2.096-0.045
				c-4.495-0.111-9.018-0.299-13.489-0.772c-0.077,0.695-0.161,1.394-0.245,2.091c4.523,0.48,9.087,0.669,13.619,0.781
				c0.701,0.017,1.398,0.03,2.097,0.045C780.027,485.35,780.851,485.369,781.669,485.385z"/>
		</g>
		<g>
			<path fill="#FFFFFF" d="M909.257,621.789c0.342-0.629,0.667-1.284,0.998-1.929c-2.024-0.483-4.039-1.046-6.033-1.646
				c-0.68-0.205-1.356-0.409-2.03-0.617c-0.524-0.162-1.052-0.324-1.573-0.486c-4.709-1.465-9.578-2.98-14.566-3.755
				c-4.56-0.705-9.166-0.779-13.752-0.572l-1.185,2.167c4.896-0.276,9.804-0.263,14.614,0.482c4.834,0.751,9.629,2.242,14.264,3.685
				c0.434,0.135,0.876,0.27,1.314,0.406c0.673,0.209,1.347,0.415,2.028,0.621C905.286,620.734,907.263,621.298,909.257,621.789z"/>
		</g>
		<g>
			<path fill="#FFFFFF" d="M810.272,609.955c11.008,4.621,22.054,6.976,33.104,7.042c5.623,0.002,11.396-0.553,16.945-1.119
				c3.296-0.336,6.638-0.672,9.988-0.883c0.593-0.778,1.135-1.517,1.605-2.19c-3.966,0.193-7.918,0.586-11.808,0.982
				c-5.49,0.561-11.183,1.085-16.719,1.108c-10.407-0.062-20.824-2.226-31.219-6.445c-0.737-0.299-1.474-0.608-2.211-0.928
				c-11.008-4.779-21.988-11.879-32.904-21.273c-0.578-0.497-1.155-0.995-1.732-1.504c-2.244-1.982-4.485-4.068-6.723-6.245
				c-0.507-0.493-1.014-0.978-1.521-1.481c-5.82-5.778-11.618-12.211-17.388-19.297c-0.367-0.45-1.034-0.517-1.478-0.152
				c-0.45,0.367-0.519,1.028-0.152,1.478c5.751,7.063,11.534,13.481,17.342,19.262c0.505,0.503,1.011,0.993,1.517,1.486
				c2.099,2.048,4.202,4.011,6.308,5.891c0.575,0.513,1.151,1.028,1.726,1.529c10.964,9.54,22.007,16.8,33.093,21.764
				C808.787,609.312,809.53,609.643,810.272,609.955z"/>
		</g>
		<g>
			<path fill="#FFFFFF" d="M922.043,586.656c0.169-0.692,0.323-1.389,0.486-2.083c-2.322-0.138-4.642-0.337-6.959-0.597
				c-0.701-0.079-1.401-0.161-2.1-0.251c-13.552-1.735-26.904-5.51-39.256-11.189c-0.521-0.245-1.148-0.013-1.393,0.515
				c-0.243,0.526-0.013,1.152,0.515,1.393c12.481,5.74,25.968,9.56,39.659,11.335c0.699,0.091,1.397,0.183,2.097,0.263
				C917.405,586.305,919.723,586.511,922.043,586.656z"/>
		</g>
		<g>
			<path fill="#FFFFFF" d="M801.018,528.824c7.006,2.537,13.205,6.807,18.861,11.045c12.648,9.473,24.413,20.229,34.972,31.969
				c0.207,0.23,0.494,0.348,0.781,0.348c0.251,0,0.502-0.089,0.703-0.27c0.431-0.388,0.466-1.053,0.078-1.484
				c-10.649-11.841-22.517-22.69-35.272-32.247c-5.786-4.333-12.143-8.707-19.408-11.337c-0.855-0.31-1.726-0.572-2.595-0.835
				c-0.672-0.203-1.346-0.394-2.023-0.573c-3.065-0.811-6.173-1.427-9.217-2.011c-2.835-0.544-5.766-1.104-8.588-1.828
				c-0.421-0.108-0.837-0.247-1.258-0.363c-0.676-0.186-1.351-0.379-2.023-0.584c-4.738-1.44-9.39-3.272-13.912-5.08l-1.26-0.503
				c0.031,0.768,0.061,1.536,0.104,2.306l0.377,0.15c4.604,1.839,9.343,3.704,14.205,5.174c0.67,0.203,1.344,0.396,2.019,0.582
				c0.41,0.113,0.814,0.248,1.226,0.353c2.883,0.739,5.847,1.307,8.713,1.855c2.969,0.569,5.998,1.17,8.965,1.95
				c0.68,0.179,1.354,0.368,2.024,0.57C799.34,528.268,800.188,528.524,801.018,528.824z"/>
		</g>
	</g>
	<g>
		<g>
			<path fill="#1C2C3D" d="M856.491,493.326c0.718-2.74,1.293-5.526,1.805-8.294c3.829-20.711,4.858-41.951,10.224-62.318
				c1.669-6.337,3.755-12.572,5.019-19.003c2.234-11.362,1.836-23.232-1.154-34.419c1.858-1.348,4.222,0.905,5.214,2.975
				c0.992,2.07,2.496,4.676,4.747,4.227c1.285-0.256,2.122-1.472,2.761-2.616c2.027-3.631,3.258-18.118,7.112-18.816
				c3.772-0.684,4.885,4.83,5.218,8.649c1.13,12.978,12.53,23.331,13.647,36.31c0.483,5.614-1.026,11.187-2.521,16.62
				c-11.737,42.652-23.531,85.465-41.058,126.083c-3.181,7.372-7.997,15.868-14.293,21.014c-6.537,5.343-11.014,1.415-16.66-2.421
				c-5.19-3.527-11.002-3.151-17.066-0.8c-5.352,2.074-10.078,5.453-14.818,8.69c-6.188,4.226-12.503,8.267-18.933,12.116
				c-4.15,2.484-8.513,4.943-13.326,5.419c-5.485,0.542-10.836-1.546-16.114-3.137c-12.155-3.664-25.067-4.799-37.675-3.311
				c2.411-3.897,7.127-5.569,11.453-7.082c12.758-4.46,26.274-10.89,31.843-23.205c1.908-4.22,2.729-8.862,4.572-13.11
				c2.998-6.906,9.086-11.475,16.563-10.359c4.862,0.726,8.643,2.36,13.643,1.359c4.096-0.82,7.771-3.055,11.95-3.624
				c3.938-0.536,8.001,0.358,11.538,2.171c1.874,0.961,3.671,2.193,5.746,2.555c8.192,1.427,13.772-8.694,18.117-13.973
				C849.395,508.527,854.326,501.586,856.491,493.326z"/>
		</g>
	</g>
	<g>
		<g>
			<path fill="#ADC7E3" d="M799.1,314.059c-0.492,0.897,5.106,3.615,7.476,2.619c12.303-5.171,21.387-8.503,21.387-8.503
				s-7.488-37.701-13.807-37.701C811.37,270.474,810.155,293.911,799.1,314.059z"/>
		</g>
	</g>
	<g>
		<g>
			<path fill="#ADC7E3" d="M804.953,314.613c0,0,14.006-44.149,9.192-44.149c0,0,11.768-7.979,16.939-11.011
				c2.173-1.274,4.417-2.425,6.674-3.539c1.631-0.805,3.499-2.058,5.271-2.503c1.089-0.273,0.945-0.404,1.315,0.931
				c0.436,1.571,0.654,3.243,0.951,4.846c0.601,3.237,1.134,6.487,1.601,9.746c0.497,3.474,0.283,7.405-1.583,10.5
				c-0.722,1.197-1.678,2.241-2.387,3.446c-1.007,1.711-1.477,3.678-1.882,5.621c-0.95,4.555-1.621,9.2-1.436,13.849
				c0.218,5.485,1.681,10.936,1.272,16.445c-0.174,2.344-0.686,4.331-0.642,6.761c0.052,2.859,0.079,5.733-0.383,8.565
				c-5.773,35.391-13.481-14.358-15.936-38.75C820.712,301.165,804.953,314.613,804.953,314.613z"/>
		</g>
	</g>
	<g>
		<g>
			<path fill="#F3A771" d="M900.26,212.586c0,0-29.935,32.308-55.854,32.308c-29.022,0-49.283-26.467-49.283-46.545
				c0-19.531,5.111-22.269,5.111-26.649c0-4.381-7.953-33.846,2.773-56.598c7.872-16.698,81.955-10.749,81.955-10.749l26.278,46.176
				c0,0,9.647,14.417,9.647,15.694s-0.548,25.007-0.548,26.284s-4.746,16.61-5.293,16.975
				C914.497,209.848,900.26,212.586,900.26,212.586z"/>
		</g>
	</g>
	<g>
		<g>
			<path fill="#0E161F" d="M833.977,170.505c-0.243-0.209-6.049-5.058-11.845-1.024l-1.201-1.725
				c7.155-4.973,14.344,1.093,14.416,1.155L833.977,170.505z"/>
		</g>
	</g>
	<g>
		<g>
			<path fill="#0E161F" d="M915.132,175.521c-12.728-0.497-25.78-0.752-37.014-0.951l0.038-2.102
				c11.244,0.2,24.309,0.455,37.06,0.953L915.132,175.521z"/>
		</g>
	</g>
	<g>
		<g>
			<circle fill="#0E161F" cx="865.129" cy="175.472" r="4.146"/>
		</g>
	</g>
	<g>
		<g>
			<circle fill="#0E161F" cx="812.736" cy="168.051" r="4.146"/>
		</g>
	</g>
	<g>
		<g>
			<path fill="#42210B" d="M829.872,202.461c-3.364,0-6.936-0.502-10.359-1.888c-0.538-0.218-0.796-0.83-0.58-1.368
				c0.22-0.538,0.832-0.797,1.37-0.58c10.043,4.07,21.97-0.174,23.758-1.102c0.188-0.174,0.439-0.28,0.715-0.28
				c0.004,0,0.008,0,0.013,0c0.422,0.005,0.815,0.268,0.975,0.659s0.063,0.855-0.236,1.154
				C845.162,199.424,838.15,202.461,829.872,202.461z"/>
		</g>
	</g>
	<g>
		<g>
			<path fill="#42210B" d="M875.165,156.541c-0.203-3.382-9.062-10.406-17.531-6.666c-8.469,3.74,3.882,5.702,6.909,6.707
				C867.57,157.588,875.376,160.05,875.165,156.541z"/>
		</g>
	</g>
	<g>
		<g>
			<path fill="#42210B" d="M824.349,150.657c-0.203-3.382-9.062-10.406-17.531-6.666c-8.469,3.74,3.882,5.702,6.909,6.707
				C816.753,151.704,824.56,154.166,824.349,150.657z"/>
		</g>
	</g>
	<g opacity="0.36">
		<g>
			<defs>
				
					<ellipse id="SVGID_3_" transform="matrix(0.9832 -0.1826 0.1826 0.9832 -16.9277 159.2221)" cx="856.397" cy="171.559" rx="21.717" ry="26.163"/>
			</defs>
			<clipPath id="SVGID_4_">
				<use xlink:href="#SVGID_3_"  overflow="visible"/>
			</clipPath>
		</g>
	</g>
	<g opacity="0.36">
		<g>
			<defs>
				
					<ellipse id="SVGID_5_" transform="matrix(0.9832 -0.1826 0.1826 0.9832 -17.1848 148.7764)" cx="799.53" cy="167.732" rx="21.717" ry="26.163"/>
			</defs>
			<clipPath id="SVGID_6_">
				<use xlink:href="#SVGID_5_"  overflow="visible"/>
			</clipPath>
		</g>
	</g>
	<g>
		<g>
			<path fill="#0E161F" d="M857.855,198.638c-11.79,0-22.416-10.764-24.149-24.906v-0.001c-0.981-8.013,1.058-15.843,5.595-21.481
				c3.58-4.452,8.489-7.18,13.821-7.684c12.478-1.186,24.146,9.953,25.968,24.82c0.982,8.013-1.057,15.842-5.593,21.481
				c-3.58,4.452-8.489,7.181-13.821,7.685C859.067,198.61,858.459,198.638,857.855,198.638z M835.792,173.476
				c1.686,13.749,12.322,24.071,23.686,22.984c4.762-0.45,9.16-2.905,12.383-6.91c4.181-5.2,6.056-12.456,5.142-19.908
				c-1.684-13.747-12.291-24.05-23.684-22.984c-4.762,0.45-9.16,2.904-12.383,6.909C836.755,158.766,834.88,166.023,835.792,173.476
				L835.792,173.476z"/>
		</g>
	</g>
	<g>
		<g>
			<path fill="#0E161F" d="M800.986,194.81c-11.79,0.001-22.414-10.764-24.147-24.906l0,0c-0.982-8.013,1.057-15.842,5.593-21.481
				c3.58-4.451,8.489-7.18,13.821-7.684c12.521-1.198,24.147,9.954,25.97,24.82c0.981,8.014-1.058,15.844-5.595,21.482
				c-3.58,4.452-8.489,7.179-13.821,7.683C802.198,194.783,801.59,194.81,800.986,194.81z M798.082,142.755
				c-0.542,0-1.085,0.026-1.632,0.077c-4.762,0.449-9.16,2.904-12.381,6.909c-4.183,5.2-6.058,12.456-5.144,19.908l0,0
				c1.686,13.748,12.301,24.07,23.684,22.984c4.762-0.449,9.16-2.903,12.381-6.908c4.183-5.199,6.058-12.456,5.146-19.91
				C818.531,152.728,808.824,142.755,798.082,142.755z"/>
		</g>
	</g>
	<g>
		<g>
			<path fill="#D16D37" d="M827.964,167.234c0,0-1.515,3.727-5.293,4.733c-3.779,1.006-5.718-0.938-7.793,1.794
				c-2.074,2.731,1.711,9.947,8.581,8.273S827.964,167.234,827.964,167.234z"/>
		</g>
	</g>
	<g>
		<g>
			<path fill="#1C2C3D" d="M799.005,127.226c0,0,31.131-26.311,82.855,8.172c9.628,6.419,3.477,18.187,8.826,24.606
				c18.018,21.622,2.921,26.457,2.921,26.457l29.955-8.559c0,0,15.156-58.573-26.835-60.98c0,0-34.111-47.214-79.434-33.432
				C771.559,97.399,799.005,127.226,799.005,127.226z"/>
		</g>
	</g>
	<g>
		<g>
			<path fill="#F3A771" d="M891.188,212.308c0,0,11.588,11.934,27.793,6.916s20.438-24.482,18.96-29.68s-12.26-15.804-22.343-12.682
				c-10.083,3.122-19.999,16.979-19.999,16.979L891.188,212.308z"/>
		</g>
	</g>
	<g>
		<g>
			<g>
				<path fill="#42210B" d="M907.354,196.799c-0.23,0-0.462-0.075-0.656-0.23c-0.454-0.362-0.528-1.023-0.165-1.477
					c9.756-12.21,18.773-6.582,18.859-6.526c0.488,0.315,0.627,0.966,0.312,1.454c-0.314,0.484-0.962,0.626-1.448,0.315l0,0
					c-0.306-0.191-7.56-4.591-16.081,6.069C907.968,196.664,907.662,196.799,907.354,196.799z"/>
			</g>
		</g>
		<g>
			<g>
				<path fill="#42210B" d="M918.399,197.505c-0.114,0-0.232-0.019-0.346-0.059c-0.549-0.191-0.838-0.791-0.646-1.338
					c1.152-3.305-1.093-6.69-1.116-6.723c-0.325-0.481-0.2-1.134,0.283-1.459c0.481-0.324,1.135-0.196,1.458,0.283
					c0.118,0.174,2.854,4.303,1.359,8.591C919.241,197.234,918.834,197.505,918.399,197.505z"/>
			</g>
		</g>
	</g>
	<g>
		<g>
			<path fill="#ADC7E3" d="M969.536,310.671c5.753,9.005,6.776,50.816,1.961,82.376c-4.814,31.56-21.396,38.514-27.815,75.957
				s-35.304,116.075-69.004,133.193c-11.626,5.905-24.71,12.142-37.974,12.871c-13.705,0.753-24.288-9.446-37.427-12.746
				c-2.111-0.53-4.261-0.978-6.437-0.995c-6.428-0.049-13.604,3.461-18.808-0.313c-4.622-3.352-4.366-10.171-3.883-15.861
				c0.666-7.844,0.875-16.182-1.826-23.702c-2.063-5.743-11.223-13.613-9.158-20.135c3.813-12.042,29.483-11.784,37.338-5.548
				c0.76,0.604,1.675,1.3,2.601,1.007c0.827-0.261,1.211-1.178,1.597-1.955c2.714-5.454,10.792-7.27,15.578-3.501
				c2.939,2.315,4.401,6.025,6.95,8.764c0.461,0.496,0.995,0.979,1.659,1.112c0.629,0.126,1.271-0.082,1.878-0.287
				c3.398-1.149,6.797-2.297,10.196-3.446c15.825-5.349,22.486-18.623,24.242-34.195c1.503-13.325,3.327-26.617,5.542-39.843
				c4.841-28.91,10.551-59.786,24.514-85.891C915.867,331.533,965.435,304.252,969.536,310.671z"/>
		</g>
	</g>
	<g>
		<g>
			<path fill="none" d="M895.99,479.581c2.189,1.486,3.236,3.867,4.249,6.168c0.895,2.037,1.741,3.96,3.299,5.154
				c1.553,1.193,3.711,1.532,5.798,1.859l0.39,0.061c0.483,0.077,0.964,0.182,1.446,0.267c5.027-13.694,9.597-27.528,13.717-41.485
				c-4.452-2.413-9.501-4.01-14.037-5.05c-4.182-0.961-8.401-1.726-12.642-2.337c-3.024,11.3-6.159,22.564-9.475,33.757
				C891.038,477.99,893.766,478.072,895.99,479.581z"/>
		</g>
		<g>
			<path fill="none" d="M911.324,444.505c5.51,1.264,10.244,2.96,14.177,5.042c4.049-13.879,7.642-27.882,10.789-41.995
				c-0.414-0.062-0.829-0.124-1.24-0.182c-8.944-1.252-17.969-2.003-27.007-2.269c-2.919,12.403-6.009,24.765-9.282,37.075
				C902.974,442.789,907.167,443.551,911.324,444.505z"/>
		</g>
		<g>
			<path fill="none" d="M870.444,529.673l0.061,0.063c0.986,1.019,2.005,2.069,3.206,2.727c2.033,1.114,4.589,1.114,7.062,1.114
				c4.613,0.002,9.103,0.143,13.328,1.606c5.883-13.221,11.321-26.591,16.327-40.094c-0.344-0.059-0.687-0.136-1.032-0.19
				l-0.386-0.061c-2.345-0.367-4.772-0.747-6.752-2.265c-1.984-1.522-2.98-3.785-3.941-5.975c-0.935-2.125-1.817-4.129-3.506-5.275
				c-1.845-1.252-4.392-1.235-6.56-1.25l-0.143,0c-1.962,6.581-3.962,13.146-6.023,19.683
				C878.79,510.208,875.396,520.376,870.444,529.673z"/>
		</g>
		<g>
			<path fill="none" d="M858.201,543.869c-0.325,0.148-0.642,0.272-0.953,0.379c0.519,1.21,1.024,2.464,1.5,3.82
				c0.971,2.769,1.275,5.739,1.57,8.61c0.369,3.607,0.718,7.012,2.286,9.954c0.553,1.038,1.268,1.982,2.022,2.982
				c0.526,0.694,1.045,1.392,1.519,2.121c1.369-0.633,2.634-1.35,3.713-2.058c10.469-6.873,16.844-18.264,19.712-24.444
				c1.253-2.698,2.448-5.415,3.664-8.126c-3.872-1.299-8.103-1.427-12.46-1.429c-2.609,0-5.568,0-8.071-1.372
				c-1.311-0.717-2.38-1.752-3.334-2.728c-0.368,0.652-0.719,1.313-1.104,1.955C866.06,537.216,862.923,541.718,858.201,543.869z"/>
		</g>
		<g>
			<path fill="none" d="M855.677,575.401c-2.508-0.513-4.329-2.128-6.091-3.688c-2.687-2.381-4.81-4.255-8.829-2.003
				c-0.331,0.184-0.663,0.397-0.998,0.612c-1.378,0.878-2.945,1.874-4.768,1.397c-1.549-0.401-2.419-1.659-3.185-2.767
				c-0.422-0.61-0.821-1.186-1.292-1.591c-2.005-1.711-5.285-0.33-7.098,0.669c0.557,4.698,0.531,9.468-0.41,14.216
				c-1.295,6.54-4.235,12.472-7.139,17.362c0.037,0.05,0.079,0.096,0.115,0.146c0.222,0.304,0.43,0.593,0.659,0.798
				c0.943,0.832,2.634,0.547,3.894-0.104c0.599-0.31,1.163-0.68,1.727-1.051c0.956-0.625,1.942-1.271,3.099-1.668
				c3.879-1.33,8.669,0.473,12.899,2.064c1.783,0.669,3.466,1.304,4.922,1.648c6.178,1.459,12.808,2.833,19.662,3.482
				c1.671-1,2.889-2.703,3.52-4.219c1.165-2.797,1.237-5.959,1.306-9.017c0.122-5.389,0.236-11.969-2.45-17.276
				c-2.05,0.765-4.285,1.287-6.596,1.287C857.653,575.696,856.667,575.605,855.677,575.401z"/>
		</g>
		<g>
			<path fill="none" d="M935.342,405.288c0.468,0.066,0.94,0.135,1.411,0.207c3.204-14.583,5.922-29.283,8.158-44.087
				c-0.237-0.007-0.453-0.03-0.692-0.035c-9.17-0.165-18.315,0.801-27.22,2.816c-2.624,12.97-5.449,25.912-8.465,38.818
				C917.506,403.286,926.462,404.045,935.342,405.288z"/>
		</g>
		<g>
			<path fill="none" d="M851.006,544.5c-0.574-0.076-1.167-0.156-1.796-0.215c-0.564-0.053-1.281,0.013-2.039,0.087
				c-1.402,0.131-2.854,0.272-4.057-0.249c-0.916-0.395-1.575-1.093-2.157-1.707c-0.49-0.521-0.954-1.011-1.48-1.228
				c-2.089-0.865-3.278,0.868-4.859,3.599c-0.448,0.777-0.872,1.511-1.332,2.096c-1.06,1.347-1.76,2.172-2.731,2.178
				c-0.002,0-0.006,0-0.009,0c-0.87,0-1.383-0.635-2.03-1.439c-0.283-0.352-0.629-0.781-1.083-1.269
				c-2.753-2.947-7.305-4.902-11.61-4.021c2.983,7.208,5.977,15.209,7.281,23.486c2.54-1.266,6.136-2.318,8.776-0.056
				c0.68,0.58,1.176,1.298,1.655,1.992c0.64,0.924,1.191,1.722,1.986,1.929c0.935,0.238,1.993-0.428,3.109-1.136
				c0.369-0.234,0.735-0.467,1.102-0.673c5.328-2.983,8.474-0.196,11.25,2.265c1.625,1.44,3.16,2.799,5.118,3.2
				c2.765,0.563,5.535,0.098,8.047-0.791c-0.385-0.565-0.783-1.122-1.196-1.668c-0.772-1.021-1.57-2.077-2.201-3.261
				c-1.762-3.305-2.149-7.079-2.522-10.729c-0.283-2.75-0.574-5.593-1.463-8.128c-0.507-1.446-1.041-2.788-1.597-4.056
				C853.733,544.861,852.393,544.687,851.006,544.5z"/>
		</g>
		<g>
			<path fill="none" d="M811.485,544.35c-0.777,0.566-1.581,1.152-2.586,1.478c-2.719,0.885-5.385-0.515-7.854-2.164l-0.76-0.507
				c-4.369-2.921-8.886-5.942-13.939-7.018c-0.188-0.04-0.391-0.055-0.584-0.088c3.869,2.903,7.036,7.181,8.868,12.248
				c1.826,5.051,2.496,10.93,2.045,17.889c0.717,0.667,1.321,1.457,1.722,2.367l0.093,0.219c0.11,0.258,0.26,0.614,0.38,0.684
				c0.055,0.03,0.23,0.07,0.8-0.078c0.91-0.236,1.811-0.545,2.71-0.853c1.925-0.661,3.915-1.345,6.058-1.353
				c0.008,0,0.017,0,0.027,0c2.085,0,4.279,0.969,5.598,2.472c0.454,0.517,0.791,1.074,1.007,1.657
				c1.92-1.585,3.963-3.029,6.078-4.347c-1.206-8.413-4.282-16.617-7.334-23.983c-0.55,0.241-1.093,0.522-1.619,0.876
				C811.954,544.008,811.721,544.179,811.485,544.35z"/>
		</g>
		<g>
			<path fill="#FFFFFF" d="M922.033,337.909c-0.865,0.818-1.729,1.643-2.591,2.492c-1.35,7.357-2.763,14.708-4.241,22.054
				c0.746-0.178,1.495-0.342,2.244-0.505C919.05,353.942,920.579,345.929,922.033,337.909z"/>
		</g>
		<g>
			<path fill="#FFFFFF" d="M882.084,499.755c2.061-6.537,4.061-13.102,6.023-19.683l-2.197,0.002
				c-1.901,6.369-3.835,12.724-5.829,19.051c-3.191,10.125-6.482,19.97-11.182,28.954l1.545,1.594
				C875.396,520.376,878.79,510.208,882.084,499.755z"/>
		</g>
		<g>
			<path fill="#FFFFFF" d="M786.346,536.139c5.053,1.076,9.57,4.097,13.939,7.018l0.76,0.507c2.469,1.649,5.135,3.05,7.854,2.164
				c1.005-0.327,1.809-0.912,2.586-1.478c0.236-0.171,0.469-0.342,0.709-0.502c0.526-0.354,1.069-0.636,1.619-0.876
				c-0.27-0.653-0.54-1.302-0.809-1.941c-0.674,0.293-1.34,0.638-1.985,1.073c-0.26,0.177-0.515,0.361-0.77,0.547
				c-0.677,0.49-1.313,0.954-2.001,1.178c-1.87,0.612-4.01-0.559-6.037-1.914l-0.758-0.507c-4.534-3.031-9.22-6.165-14.67-7.326
				c-1.515-0.323-3.18-0.428-4.865-0.327c1.341,0.615,2.626,1.382,3.843,2.296C785.954,536.084,786.158,536.099,786.346,536.139z"/>
		</g>
		<g>
			<path fill="#FFFFFF" d="M888.736,477.974c3.316-11.193,6.451-22.457,9.475-33.757c-0.698-0.101-1.396-0.208-2.095-0.299
				c-3.052,11.399-6.214,22.763-9.564,34.053l1.699-0.001C888.408,477.971,888.574,477.973,888.736,477.974z"/>
		</g>
		<g>
			<path fill="#FFFFFF" d="M858.201,543.869c4.722-2.151,7.86-6.653,10.064-10.336c0.385-0.642,0.736-1.303,1.104-1.955
				c-0.123-0.126-0.252-0.255-0.372-0.379l-1.154-1.191c-0.454,0.818-0.898,1.643-1.379,2.445c-2.05,3.421-4.939,7.592-9.133,9.504
				c-0.327,0.149-0.642,0.262-0.952,0.36c0.298,0.62,0.586,1.27,0.87,1.931C857.559,544.142,857.875,544.018,858.201,543.869z"/>
		</g>
		<g>
			<path fill="#FFFFFF" d="M827.432,546.355c0.454,0.488,0.8,0.918,1.083,1.269c0.646,0.804,1.159,1.439,2.03,1.439
				c0.004,0,0.008,0,0.009,0c0.971-0.006,1.67-0.83,2.731-2.178c0.46-0.585,0.884-1.319,1.332-2.096
				c1.581-2.731,2.771-4.464,4.859-3.599c0.526,0.217,0.99,0.707,1.48,1.228c0.581,0.614,1.241,1.311,2.157,1.707
				c1.203,0.521,2.655,0.38,4.057,0.249c0.758-0.074,1.475-0.141,2.039-0.087c0.629,0.059,1.222,0.139,1.796,0.215
				c1.387,0.187,2.727,0.361,4.161,0.208c-0.31-0.707-0.628-1.388-0.955-2.043c-0.936,0.017-1.877-0.106-2.925-0.247
				c-0.602-0.08-1.224-0.163-1.879-0.226c-0.762-0.07-1.611,0.011-2.434,0.089c-1.136,0.106-2.317,0.219-3.027-0.087
				c-0.519-0.222-0.977-0.707-1.461-1.22c-0.593-0.627-1.264-1.336-2.204-1.725c-3.938-1.627-6.073,2.052-7.482,4.49
				c-0.41,0.709-0.798,1.38-1.167,1.847c-0.198,0.251-0.716,0.912-1.051,1.239c-0.129-0.146-0.291-0.346-0.429-0.519
				c-0.308-0.382-0.686-0.851-1.184-1.383c-3.277-3.513-8.783-5.795-13.965-4.558c0.272,0.648,0.546,1.308,0.82,1.971
				C820.127,541.453,824.68,543.408,827.432,546.355z"/>
		</g>
		<g>
			<path fill="#FFFFFF" d="M779.203,534.139c-3.43,0.744-6.662,2.516-8.567,5.734c-0.295,0.5-0.131,1.144,0.369,1.44
				c0.507,0.295,1.146,0.127,1.44-0.369c1.92-3.243,5.508-4.74,9.098-5.057c-0.548-0.271-1.098-0.534-1.664-0.744
				C779.448,534.982,779.196,534.572,779.203,534.139z"/>
		</g>
		<g>
			<path fill="#FFFFFF" d="M908.043,405.102c-0.716-0.021-1.432-0.025-2.148-0.04c-2.903,12.317-5.976,24.593-9.228,36.817
				c0.699,0.092,1.397,0.197,2.095,0.298C902.034,429.868,905.123,417.505,908.043,405.102z"/>
		</g>
		<g>
			<path fill="#FFFFFF" d="M916.998,364.19c-0.751,0.17-1.501,0.341-2.248,0.526c-2.595,12.781-5.389,25.534-8.365,38.252
				c0.716,0.016,1.433,0.018,2.148,0.04C911.549,390.101,914.374,377.16,916.998,364.19z"/>
		</g>
		<g>
			<path fill="#FFFFFF" d="M911.172,493.09c0.7,0.124,1.401,0.245,2.099,0.387c4.935-13.465,9.426-27.065,13.488-40.784
				c-0.609-0.38-1.232-0.743-1.869-1.089C920.769,465.562,916.199,479.395,911.172,493.09z"/>
		</g>
		<g>
			<path fill="#FFFFFF" d="M790.743,564.174c-3.153,0.369-5.862,2.902-6.44,6.024c-0.105,0.572,0.272,1.119,0.842,1.226
				c0.551,0.097,1.117-0.272,1.226-0.842c0.407-2.204,2.393-4.061,4.616-4.321c1.211-0.133,2.462,0.219,3.502,0.891
				c0.064-0.789,0.114-1.565,0.149-2.325C793.431,564.275,792.091,564.015,790.743,564.174z"/>
		</g>
		<g>
			<path fill="#FFFFFF" d="M815.069,571.302c-0.217-0.583-0.553-1.14-1.007-1.657c-1.319-1.503-3.514-2.472-5.598-2.472
				c-0.01,0-0.019,0-0.027,0c-2.144,0.008-4.133,0.692-6.058,1.353c-0.899,0.308-1.8,0.618-2.71,0.853
				c-0.57,0.148-0.745,0.108-0.8,0.078c-0.12-0.07-0.27-0.426-0.38-0.684l-0.093-0.219c-0.401-0.91-1.004-1.7-1.722-2.367
				c-0.057,0.885-0.127,1.781-0.22,2.701c-0.013,0.125-0.032,0.266-0.046,0.394c0.019,0.04,0.047,0.076,0.065,0.117l0.082,0.192
				c0.224,0.53,0.532,1.256,1.256,1.68c0.906,0.525,1.94,0.258,2.381,0.143c0.965-0.249,1.919-0.574,2.87-0.901
				c1.845-0.633,3.588-1.231,5.384-1.239c0.006,0,0.013,0,0.019,0c1.484,0,3.096,0.705,4.019,1.756
				c0.412,0.469,0.876,1.233,0.745,2.197c-0.059,0.435,0.16,0.861,0.547,1.068c0.39,0.209,0.863,0.154,1.192-0.141
				c2.011-1.784,4.197-3.384,6.461-4.852c-0.078-0.784-0.169-1.566-0.28-2.347C819.032,568.273,816.989,569.717,815.069,571.302z"/>
		</g>
		<g>
			<path fill="#FFFFFF" d="M893.233,537.108c-1.216,2.71-2.411,5.428-3.664,8.126c-2.868,6.18-9.243,17.57-19.712,24.444
				c-1.078,0.708-2.344,1.425-3.713,2.058c0.024,0.037,0.054,0.071,0.077,0.108c0.361,0.565,0.653,1.156,0.947,1.747
				c1.42-0.667,2.721-1.421,3.843-2.157c10.902-7.159,17.502-18.933,20.465-25.314c1.267-2.729,2.476-5.477,3.706-8.219
				c-0.446-0.201-0.887-0.425-1.34-0.593C893.642,537.233,893.436,537.176,893.233,537.108z"/>
		</g>
		<g>
			<path fill="#FFFFFF" d="M894.101,535.183c0.158,0.055,0.318,0.098,0.476,0.156c0.5,0.186,0.981,0.427,1.469,0.647
				c5.941-13.357,11.431-26.865,16.481-40.51c-0.698-0.139-1.399-0.267-2.099-0.388
				C905.422,508.592,899.984,521.962,894.101,535.183z"/>
		</g>
		<g>
			<path fill="#FFFFFF" d="M925.501,449.547c0.648,0.343,1.273,0.698,1.877,1.062c4.129-14.114,7.789-28.355,10.988-42.71
				c-0.691-0.128-1.384-0.242-2.077-0.347C933.143,421.665,929.55,435.669,925.501,449.547z"/>
		</g>
		<g>
			<path fill="#FFFFFF" d="M936.753,405.496c0.691,0.106,1.384,0.221,2.076,0.35c3.22-14.664,5.949-29.445,8.192-44.332
				c-0.697-0.04-1.387-0.086-2.11-0.106C942.675,376.213,939.958,390.913,936.753,405.496z"/>
		</g>
		<g>
			<path fill="#FFFFFF" d="M952.389,315.208c-0.723,0.396-1.465,0.82-2.218,1.258c-1.201,14.371-2.839,28.662-4.937,42.856
				c0.719,0.022,1.413,0.066,2.11,0.108C949.504,344.785,951.181,330.04,952.389,315.208z"/>
		</g>
		<g>
			<path fill="#FFFFFF" d="M856.099,573.341c-1.957-0.401-3.493-1.76-5.118-3.2c-2.776-2.461-5.921-5.249-11.25-2.265
				c-0.367,0.205-0.734,0.439-1.102,0.673c-1.115,0.709-2.174,1.374-3.109,1.136c-0.794-0.207-1.345-1.005-1.986-1.929
				c-0.479-0.694-0.975-1.412-1.655-1.992c-2.64-2.262-6.235-1.211-8.776,0.056c0.116,0.735,0.225,1.471,0.313,2.209
				c1.813-0.999,5.093-2.379,7.098-0.669c0.471,0.405,0.87,0.981,1.292,1.591c0.766,1.108,1.636,2.366,3.185,2.767
				c1.822,0.477,3.39-0.519,4.768-1.397c0.334-0.215,0.667-0.428,0.998-0.612c4.019-2.252,6.142-0.378,8.829,2.003
				c1.762,1.56,3.582,3.175,6.091,3.688c0.99,0.203,1.976,0.295,2.949,0.295c2.31,0,4.546-0.522,6.596-1.287
				c-0.245-0.483-0.477-0.973-0.771-1.433c-0.094-0.147-0.207-0.282-0.305-0.426C861.633,573.439,858.864,573.905,856.099,573.341z"
				/>
		</g>
		<g>
			<path fill="#FFFFFF" d="M860.236,605.774c0.967-0.06,1.833-0.388,2.611-0.853c-6.854-0.648-13.484-2.022-19.662-3.482
				c-1.456-0.344-3.139-0.979-4.922-1.648c-4.23-1.591-9.021-3.394-12.899-2.064c-1.157,0.397-2.144,1.043-3.099,1.668
				c-0.564,0.371-1.129,0.741-1.727,1.051c-1.26,0.652-2.951,0.937-3.894,0.104c-0.23-0.205-0.437-0.494-0.659-0.798
				c-0.036-0.05-0.078-0.096-0.115-0.146c-0.393,0.662-0.782,1.308-1.171,1.93c0.162,0.201,0.342,0.401,0.55,0.585
				c1.802,1.592,4.414,1.144,6.252,0.192c0.663-0.342,1.29-0.751,1.916-1.159c0.886-0.58,1.724-1.129,2.632-1.44
				c3.16-1.083,7.578,0.578,11.474,2.043c1.849,0.694,3.594,1.351,5.18,1.726c4.624,1.093,9.511,2.131,14.555,2.881
				c0.78-0.496,1.712-0.547,2.499-0.573L860.236,605.774z"/>
		</g>
		<g>
			<path fill="#FFFFFF" d="M809.383,597.116c-3.058,0.331-5.792,1.769-8.437,3.158c-1.122,0.589-2.221,1.17-3.32,1.659
				c0.553,0.12,1.104,0.251,1.651,0.389c0.498,0.125,0.987,0.278,1.478,0.422c0.391-0.202,0.781-0.406,1.169-0.609
				c2.584-1.359,5.026-2.641,7.683-2.928c0.739-0.08,2.42-0.141,3.641,0.689c0.355-0.577,0.713-1.181,1.071-1.791
				C813.031,597.275,811.311,596.913,809.383,597.116z"/>
		</g>
		<g>
			<path fill="#FFFFFF" d="M781.839,598.31c-0.817-0.649-2.2-1.944-1.729-2.965c0.243-0.526,0.013-1.152-0.513-1.395
				c-0.521-0.241-1.152-0.013-1.395,0.513c-0.772,1.671-0.025,3.523,2.076,5.279C780.811,599.286,781.332,598.81,781.839,598.31z"/>
		</g>
		<g>
			<path fill="#FFFFFF" d="M784.065,602.417c1.091-0.162,2.194-0.355,3.298-0.537c-1.257-0.622-2.508-1.42-3.79-2.315
				c-0.505,0.501-1.024,0.991-1.569,1.465C782.696,601.52,783.381,601.984,784.065,602.417z"/>
		</g>
		<g>
			<path fill="#FFFFFF" d="M864.415,607.186c2.808-1.277,5.561-2.62,8.24-3.966c0.076-0.708-0.057-1.397-0.398-1.989
				c-0.289-0.504-0.929-0.68-1.435-0.386c-0.504,0.289-0.677,0.931-0.386,1.435c0.2,0.348,0.154,0.735,0.078,1
				c-0.163,0.578-0.618,1.138-1.157,1.429c-0.977,0.529-2.202,0.551-3.487,0.485c-0.787,0.794-1.675,1.423-2.618,1.88
				C863.641,607.106,864.024,607.157,864.415,607.186z"/>
		</g>
		<g>
			<path fill="#FFFFFF" d="M972.604,371.497c0.456-0.358,0.538-1.019,0.179-1.476c-4.967-6.343-13.545-9.875-25.438-10.591
				c-0.696-0.042-1.391-0.086-2.11-0.108c-0.333-0.01-0.64-0.044-0.978-0.05c-9.013-0.149-18.021,0.764-26.812,2.678
				c-0.749,0.163-1.498,0.327-2.244,0.505c-6.398,1.525-12.667,3.594-18.727,6.181c-0.657,1.034-1.293,2.085-1.926,3.141
				c6.504-2.987,13.274-5.346,20.203-7.061c0.747-0.185,1.497-0.356,2.248-0.526c8.905-2.016,18.05-2.981,27.22-2.816
				c0.239,0.004,0.455,0.028,0.692,0.035c0.723,0.02,1.412,0.066,2.11,0.106c11.368,0.649,19.5,3.918,24.108,9.803
				C971.486,371.774,972.148,371.851,972.604,371.497z"/>
		</g>
		<g>
			<path fill="#FFFFFF" d="M935.342,405.288c-8.88-1.243-17.836-2.002-26.809-2.281c-0.715-0.022-1.432-0.024-2.148-0.04
				c-8.105-0.182-16.219,0.01-24.296,0.618c-0.578,0.042-1.011,0.547-0.967,1.127c0.042,0.578,0.544,1.057,1.127,0.967
				c7.859-0.59,15.756-0.781,23.645-0.618c0.716,0.015,1.432,0.019,2.148,0.04c9.038,0.265,18.063,1.017,27.007,2.269
				c0.412,0.058,0.826,0.119,1.24,0.182c0.693,0.105,1.385,0.218,2.077,0.347c3.059,0.568,6.052,1.428,8.52,3.13
				c3.894,2.685,6.545,7.594,7.276,13.469c0.55,4.401,0.066,8.89-0.589,13.297c0.912-1.892,1.839-3.715,2.769-5.491
				c0.212-2.674,0.243-5.368-0.094-8.066c-0.806-6.469-3.784-11.915-8.169-14.938c-2.756-1.901-5.984-2.842-9.251-3.454
				c-0.692-0.129-1.384-0.245-2.076-0.35C936.282,405.423,935.811,405.354,935.342,405.288z"/>
		</g>
		<g>
			<path fill="#FFFFFF" d="M911.324,444.505c-4.157-0.954-8.35-1.716-12.563-2.328c-0.698-0.101-1.396-0.206-2.095-0.298
				c-8.551-1.125-17.19-1.542-25.838-1.258c-0.138,0.705-0.275,1.409-0.41,2.113c8.595-0.32,17.19,0.076,25.698,1.184
				c0.699,0.091,1.397,0.198,2.095,0.299c4.241,0.611,8.46,1.376,12.642,2.337c4.536,1.041,9.584,2.638,14.037,5.05
				c0.638,0.345,1.26,0.709,1.869,1.089c4.563,2.845,8.257,6.672,9.687,11.841c0.638,2.301,1.803,6.505,5.074,6.505
				c0.137,0,0.277-0.008,0.422-0.023c0.578-0.061,0.996-0.578,0.935-1.155c-0.061-0.578-0.587-0.984-1.155-0.935
				c-1.693,0.181-2.56-2.467-3.25-4.952c-1.478-5.343-5.25-9.841-11.094-13.364c-0.604-0.364-1.229-0.719-1.877-1.062
				C921.568,447.466,916.833,445.77,911.324,444.505z"/>
		</g>
		<g>
			<path fill="#FFFFFF" d="M909.726,492.823l-0.39-0.061c-2.087-0.327-4.245-0.665-5.798-1.859
				c-1.558-1.193-2.404-3.117-3.299-5.154c-1.013-2.301-2.06-4.682-4.249-6.168c-2.224-1.509-4.952-1.591-7.255-1.608
				c-0.162-0.001-0.328-0.003-0.486-0.004l-1.699,0.001l-22.068,0.017c-0.103,0.701-0.206,1.401-0.306,2.102l21.733-0.017
				l2.197-0.002l0.143,0c2.168,0.015,4.715-0.002,6.56,1.25c1.689,1.146,2.571,3.151,3.506,5.275
				c0.962,2.189,1.957,4.452,3.941,5.975c1.98,1.518,4.407,1.898,6.752,2.265l0.386,0.061c0.345,0.055,0.688,0.131,1.032,0.19
				c0.701,0.121,1.401,0.248,2.099,0.388c7.748,1.544,15.336,4.232,22.35,7.896c0.22-0.685,0.426-1.356,0.639-2.035
				c-6.997-3.615-14.54-6.292-22.244-7.859c-0.698-0.142-1.399-0.263-2.099-0.387C910.689,493.004,910.209,492.899,909.726,492.823z
				"/>
		</g>
		<g>
			<path fill="#FFFFFF" d="M894.101,535.183c-4.226-1.463-8.716-1.604-13.328-1.606c-2.472,0-5.028,0-7.062-1.114
				c-1.201-0.658-2.22-1.708-3.206-2.727l-0.061-0.063l-1.545-1.594l-10.856-11.204c-0.274,0.717-0.573,1.417-0.882,2.11
				l10.681,11.023l1.154,1.191c0.12,0.124,0.248,0.252,0.372,0.379c0.953,0.976,2.023,2.011,3.334,2.728
				c2.503,1.372,5.461,1.372,8.071,1.372c4.357,0.002,8.589,0.13,12.46,1.429c0.203,0.068,0.409,0.125,0.61,0.2
				c0.452,0.168,0.894,0.392,1.34,0.593c2.768,1.251,5.421,3.053,7.991,4.84c4.184,2.907,8.494,5.87,13.417,6.394
				c0.328-0.671,0.654-1.344,0.979-2.02c-4.679-0.199-8.834-3.068-13.194-6.102c-2.652-1.843-5.394-3.702-8.329-5.027
				c-0.488-0.22-0.969-0.461-1.469-0.647C894.419,535.28,894.259,535.237,894.101,535.183z"/>
		</g>
		<g>
			<path fill="#FFFFFF" d="M866.144,571.735c-0.474-0.729-0.992-1.427-1.519-2.121c-0.754-1-1.469-1.944-2.022-2.982
				c-1.568-2.942-1.917-6.347-2.286-9.954c-0.295-2.871-0.599-5.842-1.57-8.61c-0.476-1.356-0.981-2.611-1.5-3.82
				c-0.284-0.661-0.572-1.312-0.87-1.931c-2.236-4.648-4.875-8.156-8.118-10.789c-0.086-0.07-0.183-0.115-0.282-0.154
				c-0.456,0.38-0.923,0.752-1.406,1.111c0.024,0.173,0.075,0.343,0.187,0.491l0.813,1.072c0.205,0.274,0.519,0.416,0.836,0.416
				c2.222,2.144,4.126,4.839,5.804,8.2c0.327,0.655,0.645,1.336,0.955,2.043c0.556,1.268,1.09,2.611,1.597,4.056
				c0.889,2.535,1.18,5.378,1.463,8.128c0.372,3.651,0.76,7.425,2.522,10.729c0.631,1.184,1.429,2.24,2.201,3.261
				c0.413,0.547,0.811,1.104,1.196,1.668c0.098,0.144,0.211,0.279,0.305,0.426c0.294,0.46,0.526,0.949,0.771,1.433
				c2.686,5.307,2.572,11.887,2.45,17.276c-0.068,3.058-0.141,6.22-1.306,9.017c-0.63,1.516-1.849,3.219-3.52,4.219
				c-0.777,0.465-1.643,0.793-2.611,0.853l-0.481,0.019c-0.787,0.026-1.719,0.077-2.499,0.573c-0.202,0.128-0.401,0.266-0.576,0.465
				c-0.475,0.536-0.585,1.292-0.296,2.026c0.228,0.578,0.645,1.027,1.131,1.248c0.686-0.266,1.368-0.538,2.049-0.817
				c0.149-0.445,0.005-0.947-0.409-1.212c-0.082-0.053-0.165-0.091-0.253-0.12c0.277-0.042,0.601-0.051,0.918-0.061l0.545-0.023
				c0.994-0.062,1.965-0.353,2.887-0.8c0.943-0.457,1.831-1.085,2.618-1.88c0.998-1.008,1.842-2.252,2.438-3.683
				c1.315-3.162,1.395-6.676,1.465-9.775c0.126-5.591,0.248-12.408-2.604-18.144c-0.294-0.591-0.586-1.182-0.947-1.747
				C866.198,571.806,866.169,571.773,866.144,571.735z"/>
		</g>
		<g>
			<path fill="#FFFFFF" d="M823.007,582.246c0.941-4.748,0.967-9.518,0.41-14.216c-0.088-0.739-0.197-1.474-0.313-2.209
				c-1.305-8.277-4.298-16.278-7.281-23.486c-0.274-0.662-0.548-1.322-0.82-1.971c-0.333-0.792-0.663-1.574-0.988-2.344
				c-0.226-0.536-0.848-0.787-1.376-0.559c-0.536,0.224-0.785,0.842-0.559,1.376c0.305,0.72,0.614,1.454,0.924,2.194
				c0.268,0.639,0.539,1.289,0.809,1.941c3.052,7.366,6.129,15.571,7.334,23.983c0.112,0.781,0.202,1.563,0.28,2.347
				c0.414,4.17,0.343,8.374-0.481,12.537c-1.2,6.053-3.903,11.618-6.627,16.265c-0.358,0.61-0.716,1.214-1.071,1.791
				c-0.443,0.72-0.881,1.414-1.308,2.078c-0.53,0.825-1.062,1.583-1.756,1.803c-0.551,0.177-0.857,0.77-0.68,1.323
				c0.143,0.445,0.557,0.73,1.002,0.73c0.106,0,0.215-0.015,0.321-0.049c1.357-0.435,2.166-1.558,2.881-2.67
				c0.323-0.503,0.657-1.038,0.989-1.572c0.388-0.622,0.777-1.268,1.171-1.93C818.772,594.718,821.711,588.786,823.007,582.246z"/>
		</g>
		<g>
			<path fill="#FFFFFF" d="M796.674,566.188c0.451-6.959-0.219-12.838-2.045-17.889c-1.832-5.067-4.999-9.345-8.868-12.248
				c-1.217-0.913-2.503-1.681-3.843-2.296c-0.435-0.2-0.864-0.419-1.309-0.585c-0.54-0.2-1.15,0.078-1.351,0.621
				c-0.043,0.115-0.053,0.232-0.055,0.347c-0.007,0.433,0.246,0.843,0.676,1.004c0.566,0.21,1.116,0.473,1.664,0.744
				c4.878,2.418,8.962,7.187,11.11,13.126c1.618,4.478,2.264,9.688,1.984,15.812c-0.035,0.76-0.085,1.536-0.149,2.325
				c-0.041,0.508-0.072,1.005-0.125,1.525c-1.277,12.52-5.745,22.956-12.524,29.634c-0.507,0.499-1.028,0.976-1.561,1.433
				c-1.116,0.957-2.286,1.821-3.51,2.581c0.988,0.284,2.02,0.412,3.083,0.429c0.752-0.549,1.466-1.125,2.153-1.723
				c0.544-0.474,1.063-0.964,1.569-1.465c9.122-9.054,11.972-22.243,12.835-30.282c0.014-0.128,0.033-0.269,0.046-0.394
				C796.547,567.969,796.617,567.072,796.674,566.188z"/>
		</g>
	</g>
	<g>
		<g>
			<path fill="#ADC7E3" d="M850.87,282.693c7.551-10.913,18.933-17.527,28.166-26.799c3.592-3.607,8.585-7.615,8.878-13.103
				c1.367,0.817,2.536,1.963,3.38,3.313c1.572,2.516,1.933,5.545,3.185,8.207c1.27,2.702,2.995,5.161,4.27,7.861
				c2.106,4.458,2.133,3.489,2.133,3.489s-34.555,52.174-39.217,52.352c-1.389,0.053-1.771-2.469-1.97-3.404
				c-1.164-5.466-1.176-11.17-1.988-16.694c-0.429-2.915-0.966-5.859-1.978-8.635C855.517,288.697,851.564,281.653,850.87,282.693z"
				/>
		</g>
	</g>
	<g>
		<g>
			<path fill="#F8BB16" d="M693.522,728.258c0,0,71.321-62.05,149.062-77.027s118.393-4.992,118.393-4.992s53.491-2.14,52.778,1.426
				c-0.713,3.566-140.503,87.725-159.76,90.578C834.739,741.095,693.522,728.258,693.522,728.258z"/>
		</g>
	</g>
	<g>
		<g>
			<path fill="#0E161F" d="M807.008,453.501c-0.011,0-0.025,0-0.036-0.002c-0.435-0.019-0.772-0.388-0.751-0.823
				c0.753-16.343,3.276-32.672,7.503-48.538c1.659-6.229,4.247-12.532,6.75-18.627c3.426-8.344,6.968-16.973,8.188-25.546
				c0.163-1.133,0.295-2.27,0.409-3.407c1.338-13.272,0.621-27.747-2.189-44.252c-1.452-8.53-3.284-15.979-5.604-22.773
				c-1.254-3.676-2.556-6.892-3.975-9.831c-0.606-1.249-1.423-2.887-2.377-4.467c-0.236-0.353-0.981-1.315-1.573-1.958
				c-1.133,13.581-4.603,28.29-10.064,42.668c1.283,0.09,4.006-0.047,4.544-0.198l16.345-6.704c0.397-0.164,0.863,0.025,1.028,0.429
				c0.165,0.403-0.029,0.864-0.431,1.028l-16.379,6.718c-0.386,0.16-5.771,0.729-6.655-0.135c-0.224-0.22-0.325-0.658-0.211-0.953
				c5.712-14.835,9.287-30.047,10.332-43.992c0.057-0.757,0.597-0.944,0.76-0.982c1.353-0.304,3.632,3.23,3.654,3.266
				c0.988,1.635,1.826,3.314,2.446,4.594c1.45,2.999,2.774,6.272,4.05,10.009c2.347,6.874,4.2,14.403,5.667,23.018
				c2.835,16.647,3.555,31.259,2.204,44.674c-0.118,1.16-0.253,2.318-0.416,3.472c-1.249,8.768-4.829,17.489-8.293,25.922
				c-2.482,6.049-5.051,12.303-6.683,18.435c-4.198,15.756-6.704,31.975-7.453,48.204
				C807.775,453.171,807.428,453.501,807.008,453.501z"/>
		</g>
	</g>
	<g>
		<g>
			<path fill="#0E161F" d="M862.71,318.694c-1.167,0-2.138-0.357-2.888-1.064c-1.764-1.662-1.843-4.875-1.9-7.221
				c-0.008-0.364-0.017-0.709-0.03-1.026c-0.34-7.654-0.857-15.4-1.537-23.023c-0.093-1.044-0.19-2.124-0.587-3.067
				c-0.391-0.933-1.074-1.611-1.82-1.811c-0.675-0.179-1.594,0.125-1.815,0.802c-0.135,0.414-0.576,0.639-0.994,0.504
				c-0.414-0.135-0.638-0.58-0.504-0.994c0.46-1.409,2.163-2.248,3.719-1.835c1.233,0.331,2.279,1.323,2.868,2.723
				c0.49,1.171,0.604,2.428,0.703,3.537c0.682,7.647,1.201,15.416,1.541,23.094c0.015,0.327,0.025,0.682,0.034,1.058
				c0.049,2.069,0.12,4.901,1.404,6.111c0.485,0.455,1.129,0.656,1.959,0.633c2.026-0.072,3.59-2.361,4.967-4.381
				c0.448-0.657,0.872-1.276,1.283-1.78c11.47-14.113,21.27-29.571,29.128-45.947c0.188-0.392,0.665-0.556,1.051-0.37
				c0.393,0.188,0.559,0.659,0.371,1.052c-7.911,16.487-17.778,32.051-29.326,46.259c-0.386,0.474-0.783,1.058-1.205,1.674
				c-1.511,2.213-3.39,4.967-6.212,5.068C862.849,318.693,862.778,318.694,862.71,318.694z"/>
		</g>
	</g>
	<g>
		<g>
			<path fill="#0E161F" d="M467.546,745.518c-0.04,0-0.08-0.004-0.122-0.01c-0.429-0.066-0.724-0.471-0.658-0.901
				c2.596-16.649,5.279-33.864,11.491-49.901c4.876-12.592,14.203-29.789,30.954-40.22c8.947-5.572,19.11-8.675,29.607-11.619
				c37.085-10.402,75.213-18.534,113.32-24.17c0.416-0.065,0.832,0.232,0.895,0.663c0.065,0.431-0.234,0.832-0.663,0.895
				c-38.043,5.627-76.104,13.745-113.126,24.128c-10.383,2.911-20.43,5.978-29.2,11.44c-16.381,10.201-25.527,27.085-30.316,39.453
				c-6.151,15.879-8.821,33.009-11.404,49.574C468.264,745.241,467.928,745.518,467.546,745.518z"/>
		</g>
	</g>
	<g>
		<g>
			<g>
				<path fill="#0E161F" d="M795.197,604.915c-0.114,0-0.228-0.025-0.336-0.076c-0.393-0.184-0.563-0.656-0.376-1.049
					c8.703-18.475,10.513-40.344,4.96-59.999c-0.118-0.42,0.125-0.855,0.544-0.973c0.424-0.125,0.857,0.125,0.973,0.544
					c5.655,20.016,3.814,42.286-5.051,61.101C795.775,604.748,795.492,604.915,795.197,604.915z"/>
			</g>
		</g>
		<g>
			<g>
				<path fill="#0E161F" d="M806.419,605.008c-0.123,0-0.247-0.029-0.363-0.089c-0.386-0.2-0.538-0.675-0.336-1.062
					c6.419-12.39,8.43-26.743,5.657-40.42c-0.086-0.426,0.19-0.842,0.618-0.929c0.418-0.076,0.842,0.192,0.929,0.618
					c2.841,14.026,0.781,28.75-5.805,41.457C806.977,604.852,806.704,605.008,806.419,605.008z"/>
			</g>
		</g>
		<g>
			<g>
				<path fill="#0E161F" d="M774.603,600.419c-3.595,0-6.254-3.738-6.995-7.525c-0.669-3.417-0.424-6.961,0.709-10.252
					c0.141-0.412,0.591-0.635,1.001-0.488c0.41,0.141,0.631,0.589,0.488,1.001c-1.041,3.029-1.266,6.292-0.652,9.435
					c0.559,2.862,2.801,6.647,5.988,6.214c1.978-0.289,3.578-2.121,4.89-5.596c3.242-8.603,4.87-18.522,4.979-30.322
					c0.038-4.165-0.154-7.601-1.216-10.834c-1.22-3.723-3.582-6.626-6.48-7.968c-3.082-1.427-7.732-1.372-9.87,1.214
					c-0.272,0.325-0.749,0.378-1.079,0.131c-1.98-1.478-2.816-4.42-2.033-7.157c0.585-2.045,1.914-3.949,4.181-5.992
					c1.307-1.174,2.451-1.98,3.603-2.535c2.383-1.142,5.087-1.33,7.474-1.497c4.498-0.31,9.148-0.633,13.709,0.12
					c5.159,0.848,9.524,3.09,12.295,6.315c0.283,0.329,0.245,0.827-0.086,1.112c-0.329,0.283-0.829,0.245-1.112-0.086
					c-2.527-2.942-6.56-4.998-11.353-5.786c-4.386-0.722-8.941-0.407-13.344-0.101c-2.356,0.163-4.791,0.334-6.902,1.345
					c-1.011,0.487-2.039,1.212-3.231,2.284c-2.037,1.836-3.219,3.506-3.719,5.254c-0.53,1.851-0.141,3.799,0.944,4.99
					c2.799-2.619,7.74-2.638,11.183-1.041c3.293,1.524,5.961,4.77,7.316,8.905c1.256,3.822,1.328,7.858,1.296,11.341
					c-0.11,11.987-1.773,22.082-5.081,30.861c-1.532,4.063-3.54,6.222-6.136,6.6C775.111,600.4,774.854,600.419,774.603,600.419z"/>
			</g>
		</g>
	</g>
	<g>
		<g>
			<path fill="#0E161F" d="M792.068,108.892c0.31-6.302,4.33-11.948,9.356-15.762c14.488-10.993,35.971-7.968,51.045,2.206
				s25.207,26.006,34.911,41.388c-3.855-6.111-17.699-10.63-24.18-12.918c-8.825-3.116-18.117-4.902-27.466-5.301
				c-9.426-0.403-18.641,0.759-27.776,3.03C799.358,123.671,791.569,119.017,792.068,108.892z"/>
		</g>
	</g>
	<g>
		<g>
			<path fill="#0E161F" d="M901.34,107.455c-1.047-7.203-2.237-15.368-5.482-22.593c-4.065-9.047-11.698-17.315-22.076-23.908
				c-5.17-3.286-10.678-5.984-16.271-8.413c-0.631,0.286-1.256,0.588-1.872,0.907c5.961,2.541,11.834,5.363,17.299,8.836
				c10.115,6.428,17.544,14.459,21.483,23.224c3.155,7.025,4.276,14.727,5.361,22.175c0.971,6.666,0.359,13.298-1.821,19.779
				c0.46-18.504-13.285-34.639-22.084-43.034c-8.279-7.901-19.943-16.929-33.888-22.047c-0.562,0.378-1.12,0.743-1.676,1.097
				c14.195,4.944,26.097,14.094,34.477,22.09c9.446,9.015,24.742,27.138,21.037,47.223c-0.072,0.391,0.158,0.772,0.534,0.894
				c0.08,0.026,0.161,0.038,0.241,0.038c0.298,0,0.58-0.17,0.713-0.452C901.262,124.892,902.617,116.207,901.34,107.455z"/>
		</g>
		<g>
			<path fill="#0E161F" d="M909.037,71.464c2.679,3.876,4.83,7.895,6.388,12.018c5.562,14.714,3.331,30.962-5.684,41.394
				c-0.285,0.329-0.249,0.827,0.082,1.112c0.148,0.128,0.333,0.192,0.515,0.192c0.22,0,0.441-0.093,0.597-0.274
				c9.388-10.862,11.729-27.733,5.965-42.981c-1.473-3.899-3.451-7.707-5.898-11.389C910.345,71.536,909.691,71.512,909.037,71.464z
				"/>
		</g>
		<g>
			<path fill="#0E161F" d="M923.606,120.067c10.838-12.856,11.807-32.986,2.254-46.823c-0.63-0.914-1.308-1.792-2.002-2.655
				c-0.657,0.012-1.313,0.039-1.971,0.083c0.94,1.123,1.85,2.271,2.677,3.467c9.161,13.273,8.232,32.581-2.163,44.911
				c-0.281,0.334-0.238,0.83,0.095,1.111c0.148,0.124,0.327,0.186,0.507,0.186C923.228,120.347,923.45,120.251,923.606,120.067z"/>
		</g>
	</g>
	<g>
		<g>
			<path fill="#C9C3BD" d="M885.375,183.822c-0.938,13.1,7.022,35.357,25.773,36.699c18.751,1.342,34.661-15.334,36.168-36.396
				c1.507-21.063-8.654-41.412-22.782-42.423C910.408,140.69,887.526,153.769,885.375,183.822z"/>
		</g>
	</g>
	<g>
		<path fill="#292927" d="M925.802,145.604c-0.422,0-27.678,3.542-30.084,37.151c-0.967,13.522,1.726,23.9,8.002,30.849
			c3.361,3.72,7.158,5.789,10.32,6.953c1.692-0.045,3.348-0.247,4.973-0.574c-2.961-0.507-9.032-2.176-13.952-7.638
			c-5.914-6.563-8.441-16.475-7.512-29.46c2.263-31.623,27.935-35.434,28.191-35.448l-0.002-0.918l0.065-0.917H925.802z"/>
	</g>
	<g>
		<g>
			<path fill="#FFFFFF" d="M931.219,149.323c-7.706-0.552-26.52,9.806-28.156,32.667c-1.636,22.861,6.839,34.311,21.737,35.377
				c14.898,1.066,24.809-18.362,25.728-31.206S947.144,150.462,931.219,149.323z"/>
		</g>
	</g>
	<g>
		<g>
			<path fill="#FFFFFF" d="M923.71,151.797c0,0-5.693-7.02-5.119-10.236c2.666-14.96,3.323-28.67-2.399-43.092
				c-2.939-7.407-6.979-14.327-11.523-20.856c-1.103-1.584-9.59-14.833-11.009-14.206c8.788-3.896,20.124,4.837,25.84,10.603
				c4.384,4.422,8.122,9.48,11.118,14.936c2.6,4.734,5.482,10.264,6.747,15.508c1.777,7.365,2.445,14.995,2,22.558
				c-0.441,7.5-1.962,13.134-6.31,19.268l0.867,5.918L923.71,151.797z"/>
		</g>
	</g>
	<g>
		<g>
			<path fill="#F3A771" d="M781.171,550.843c0.544,0.984,0.932,2.082,1.262,3.157c1.894,6.184,2.646,12.716,2.207,19.169
				c-0.06,0.886-0.157,1.813-0.651,2.552c-1.269,1.895-5.999,0.111-7.871-0.039c-8.119-0.649-16.985,0.882-25.148,1.205
				c-9.82,0.388-19.768,1.035-29.599,0.619c-20.126-0.852-37.658-15.929-6.588-18.056c10.561-0.723,21.066-3.429,31.331-5.855
				c7.309-1.727,14.518-4.785,21.84-6.101c1.609-0.289,3.252-0.328,4.886-0.336c2.205-0.011,4.564,0.082,6.356,1.368
				C780.037,549.13,780.67,549.938,781.171,550.843z"/>
		</g>
	</g>
	<g>
		<g>
			<g>
				<path fill="#F3A771" d="M715.686,586.225c-4.425,2.24-9.149,3.919-13.87,5.479c-4.233,1.399-10.473,5.166-14.094,1.078
					c-2.549-2.878-5.099-5.756-7.648-8.634c-2.847-3.214-5.75-6.518-7.311-10.518c-0.161-0.414-0.31-0.855-0.242-1.294
					c0.065-0.423,0.324-0.788,0.587-1.124c3.921-5.012,10.89-7.592,16.878-8.868c3.372-0.718,6.833-1.977,10.254-2.337
					c2.828-0.298,5.505-1.552,8.397-1.584c2.476-0.027,5.066,0.439,7.517,0.797c3.071,0.448,4.987,4.308,6.979,6.42
					c1.816,1.916,4.135,3.441,3.799,6.28c-0.359,3.03-0.857,6.126-2.863,8.555c-0.982,1.189-2.241,2.115-3.53,2.96
					C718.975,584.459,717.352,585.382,715.686,586.225z"/>
			</g>
		</g>
		<g>
			<g>
				<path fill="#F3A771" d="M641.51,587.83c-0.407-0.998-0.275-3.527,4.744-5.138s31.274-15.383,31.274-15.383l4.168,5.576
					c0,0-17.068,10.604-26.079,13.845C646.605,589.971,642.732,590.824,641.51,587.83z"/>
			</g>
		</g>
		<g>
			<g>
				<path fill="#F3A771" d="M651.647,607.122c-0.677-0.839-1.275-3.299,3.07-6.283c4.345-2.984,25.545-23.709,25.545-23.709
					l5.593,4.146c0,0-13.308,15.056-21.01,20.746C657.142,607.712,653.676,609.64,651.647,607.122z"/>
			</g>
		</g>
		<g>
			<g>
				<path fill="#F3A771" d="M658.962,612.77c-0.701-0.819-1.372-3.26,2.883-6.371c4.255-3.111,24.832-24.456,24.832-24.456
					l5.713,3.979c0,0-12.856,15.443-20.387,21.359C664.472,613.197,661.066,615.227,658.962,612.77z"/>
			</g>
		</g>
		<g>
			<g>
				<path fill="#F3A771" d="M675.864,612.252c-0.829-0.69-1.9-2.984,1.772-6.765c3.672-3.781,20.373-28.278,20.373-28.278l6.3,2.963
					c0,0-10.081,17.383-16.511,24.479S678.351,614.32,675.864,612.252z"/>
			</g>
		</g>
	</g>
	<g>
		<g>
			<path fill="#D6C8BE" d="M501.298,442.492c4.35-5.438,128.029-3.517,132.25-0.703s28.842,156.871,32.359,161.795
				c3.517,4.924,101.298-4.924,106.926-1.407c5.628,3.517,2.11,12.662-3.517,13.366c-5.628,0.703-217.369,4.924-219.479,2.11
				c-2.11-2.814-0.703-14.069-0.703-14.069S498.484,446.01,501.298,442.492z"/>
		</g>
	</g>
	<g>
		<g>
			
				<ellipse transform="matrix(0.8381 -0.5456 0.5456 0.8381 -194.1889 402.6033)" fill="#FFFFFF" cx="581.097" cy="528.416" rx="13.006" ry="17.442"/>
		</g>
	</g>
	<g>
		<g>
			<path fill="#1C2C3D" d="M549.133,603.584c0,0-0.067,0.544-0.148,1.392c24.428,1.946,48.959,2.605,73.456,1.926
				c-42.14-30.147-84.78-74.025-110.492-122.772C526.085,531.879,549.133,603.584,549.133,603.584z"/>
		</g>
		<g>
			<path fill="#1C2C3D" d="M632.493,471.354c0.4,2.644,0.788,5.292,1.183,7.94c1.423,9.535,2.847,19.07,4.27,28.605
				c2.519,16.877,5.693,33.646,8.644,50.451c1.434,8.167,2.463,16.104,4.899,23.989c1.834,5.935,2.627,17.501,7.293,21.846
				c3.087,2.874,6.045,2.135,8.143-0.031c-0.512-0.163-0.863-0.351-1.019-0.57c-3.517-4.924-28.138-158.982-32.359-161.796
				c-0.465-0.31-2.381-0.609-5.423-0.888c-0.502,3.506-0.018,7.345,0.684,10.344C630.357,457.858,631.468,464.59,632.493,471.354z"
				/>
		</g>
	</g>
	<g>
		<g>
			<path fill="#FFFFFF" d="M580.589,546.465c-3.568,0-7.438-1.272-10.869-4.435c-3.44-3.168-5.916-7.761-7.359-13.648
				c-1.49-6.067-1.137-14.394,4.761-17.888c3.93-2.335,7.916-2.699,11.864-1.081c7.343,3.013,12.779,12.345,14.72,19.737
				c1.663,6.327-0.53,12.197-5.723,15.32C585.93,545.704,583.351,546.465,580.589,546.465z M574.152,510.159
				c-2.047,0-4.103,0.607-6.148,1.818l0,0c-5.085,3.015-5.314,10.5-3.966,15.994c1.362,5.552,3.667,9.855,6.851,12.792
				c5.433,5.004,12.053,4.723,16.205,2.229c4.51-2.712,6.404-7.846,4.946-13.401c-1.896-7.217-7.213-15.915-13.709-18.58
				C576.947,510.442,575.552,510.159,574.152,510.159z M567.564,511.235h0.022H567.564z"/>
		</g>
	</g>
	<g>
		<g>
			<path fill="#0E161F" d="M675.757,608.903c-0.474,0-0.861-0.384-0.863-0.858c-0.002-0.476,0.382-0.865,0.858-0.867
				c31.734-0.142,63.895-1.128,95.591-2.935c0.544-0.072,0.885,0.337,0.91,0.811c0.027,0.476-0.335,0.883-0.811,0.91
				c-31.725,1.809-63.917,2.797-95.68,2.939C675.759,608.903,675.759,608.903,675.757,608.903z"/>
		</g>
	</g>
	<g>
		<g>
			<path fill="#0E161F" d="M803.473,609.9c-3.307,0-6.427-1.021-8.854-2.925c-6.341,3.671-15.011,2.748-20.4-2.24
				c-0.319-0.295-0.338-0.792-0.042-1.114c0.295-0.317,0.794-0.336,1.114-0.042c5.021,4.646,13.184,5.406,18.979,1.767
				c0.296-0.186,0.671-0.158,0.935,0.07c2.659,2.288,6.404,3.299,10.281,2.769c3.875-0.53,7.212-2.508,9.16-5.429l0.15-0.228
				c0.576-0.874,1.292-1.963,2.539-2.256c1.313-0.308,2.472,0.422,3.409,1.005c8.111,5.068,18.302,5.823,28.111,5.887
				c5.834,0.036,12.023-0.086,17.812-2.012c5.127-1.706,10.248-4.96,15.659-9.946c10.946-10.087,18.944-22.937,26.679-35.363
				l11.153-17.916c2.206-3.544,4.489-7.208,6.167-11.1c1.9-4.409,3.023-9.068,3.341-13.853c0.029-0.435,0.399-0.737,0.838-0.735
				c0.435,0.029,0.764,0.405,0.735,0.838c-0.329,4.966-1.496,9.802-3.466,14.374c-1.725,4-4.038,7.715-6.277,11.309l-11.153,17.916
				c-7.789,12.516-15.845,25.457-26.948,35.69c-5.577,5.14-10.885,8.506-16.229,10.285c-6.018,2.001-12.358,2.106-18.321,2.092
				c-10.041-0.067-20.493-0.851-28.908-6.11c-0.785-0.49-1.575-0.99-2.24-0.825c-0.635,0.148-1.117,0.88-1.583,1.587l-0.156,0.236
				c-2.197,3.297-5.935,5.526-10.256,6.117C804.953,609.85,804.209,609.9,803.473,609.9z"/>
		</g>
	</g>
	<g>
		<g>
			<path fill="#0E161F" d="M825.927,599.837c-0.143,0-0.285-0.038-0.412-0.118c-0.371-0.228-0.487-0.713-0.258-1.083
				c7.725-12.554,10.418-28.026,7.387-42.451c-1.743-8.299-5.234-14.988-10.098-19.345c-0.323-0.291-0.352-0.789-0.061-1.114
				c0.291-0.321,0.791-0.352,1.114-0.061c5.116,4.582,8.776,11.565,10.589,20.197c3.113,14.815,0.348,30.705-7.588,43.599
				C826.45,599.704,826.191,599.837,825.927,599.837z"/>
		</g>
	</g>
	<g>
		<g>
			<path fill="#0E161F" d="M719.424,545.838c-0.025,0-0.051-0.002-0.076-0.004c-0.433-0.04-0.751-0.426-0.711-0.859
				c0.772-8.23,9.585-12.943,16.147-15.771c7.046-3.039,14.67-6.875,15.949-13.975c0.093-0.517,0.15-1.043,0.207-1.57
				c0.143-1.317,0.291-2.676,0.96-3.918c1.834-3.415,5.712-3.563,9.462-3.708c2.564-0.097,5.213-0.2,7.216-1.315
				c4.751-2.647,4.35-9.631,3.331-16.115c-2.818-17.933-1.252-36.338,0.26-54.134c0.867-10.186,1.762-20.715,1.826-31.046
				c0.029-4.395-0.086-8.926-0.196-13.307c-0.418-16.627-0.849-33.821,6.17-48.993c0.182-0.398,0.656-0.567,1.045-0.385
				c0.395,0.182,0.568,0.651,0.384,1.046c-6.864,14.839-6.436,31.846-6.024,48.293c0.11,4.394,0.226,8.935,0.198,13.357
				c-0.067,10.389-0.963,20.953-1.832,31.167c-1.507,17.705-3.063,36.013-0.274,53.758c1.102,7.02,1.477,14.615-4.122,17.734
				c-2.332,1.3-5.175,1.41-7.922,1.515c-3.611,0.139-6.727,0.258-8.135,2.877c-0.521,0.973-0.648,2.125-0.781,3.345
				c-0.061,0.563-0.122,1.125-0.222,1.678c-1.416,7.869-9.454,11.943-16.877,15.144c-6.193,2.668-14.507,7.073-15.201,14.471
				C720.169,545.532,719.825,545.838,719.424,545.838z"/>
		</g>
	</g>
	<g>
		<g>
			<path fill="#0E161F" d="M901.828,360.218c-0.163,0-0.329-0.051-0.471-0.157c-0.348-0.259-0.42-0.753-0.161-1.102
				c11.468-15.404,26.185-28.854,42.558-38.897c6.081-3.731,20.322-12.464,28.638-3.099c0.289,0.326,0.26,0.824-0.067,1.113
				c-0.323,0.29-0.821,0.26-1.112-0.066c-6.594-7.428-17.7-2.086-26.635,3.396c-16.204,9.939-30.768,23.25-42.117,38.494
				C902.305,360.108,902.068,360.218,901.828,360.218z"/>
		</g>
	</g>
</g>
</svg>
